<svg width="20" height="20" viewBox="0 0 20 20" fill="none" xmlns="http://www.w3.org/2000/svg">
<path fill-rule="evenodd" clip-rule="evenodd" d="M4.41098 4.41066C4.56725 4.25443 4.77918 4.16667 5.00015 4.16667C5.22112 4.16667 5.43304 4.25443 5.58931 4.41066L10.0001 8.82149L14.411 4.41066C14.4879 4.33107 14.5798 4.26758 14.6815 4.22391C14.7831 4.18023 14.8925 4.15724 15.0031 4.15628C15.1138 4.15532 15.2235 4.1764 15.3259 4.21831C15.4284 4.26021 15.5214 4.32208 15.5996 4.40033C15.6779 4.47857 15.7398 4.57161 15.7817 4.67403C15.8236 4.77644 15.8447 4.88618 15.8437 4.99682C15.8427 5.10747 15.8197 5.21682 15.7761 5.31849C15.7324 5.42016 15.6689 5.51212 15.5893 5.58899L11.1785 9.99982L15.5893 14.4107C15.7411 14.5678 15.8251 14.7783 15.8232 14.9968C15.8213 15.2153 15.7337 15.4243 15.5792 15.5788C15.4247 15.7333 15.2156 15.821 14.9971 15.8229C14.7787 15.8248 14.5681 15.7408 14.411 15.589L10.0001 11.1782L5.58931 15.589C5.43215 15.7408 5.22164 15.8248 5.00315 15.8229C4.78465 15.821 4.57564 15.7333 4.42113 15.5788C4.26663 15.4243 4.17898 15.2153 4.17709 14.9968C4.17519 14.7783 4.25918 14.5678 4.41098 14.4107L8.82181 9.99982L4.41098 5.58899C4.25476 5.43272 4.16699 5.22079 4.16699 4.99982C4.16699 4.77885 4.25476 4.56693 4.41098 4.41066Z" fill="#C4C4C4"/>
</svg>
