<svg width="10" height="10" viewBox="0 0 10 10" fill="none" xmlns="http://www.w3.org/2000/svg">
<path fill-rule="evenodd" clip-rule="evenodd" d="M0.5 1.00011C0.5 0.73488 0.605357 0.480514 0.792893 0.292968C0.98043 0.105423 1.23478 6.10352e-05 1.5 6.10352e-05H8.5C8.76522 6.10352e-05 9.01957 0.105423 9.20711 0.292968C9.39464 0.480514 9.5 0.73488 9.5 1.00011V8.50047C9.5 8.89832 9.34196 9.27987 9.06066 9.56118C8.77936 9.8425 8.39782 10.0005 8 10.0005H2C1.60218 10.0005 1.22064 9.8425 0.93934 9.56118C0.658035 9.27987 0.5 8.89832 0.5 8.50047V1.00011ZM8.5 1.00011H1.5V8.50047C1.5 8.63309 1.55268 8.76027 1.64645 8.85404C1.74021 8.94782 1.86739 9.0005 2 9.0005H8C8.13261 9.0005 8.25979 8.94782 8.35355 8.85404C8.44732 8.76027 8.5 8.63309 8.5 8.50047V1.00011ZM5.5 4.50028C5.5 4.63289 5.44732 4.76008 5.35355 4.85385C5.25979 4.94762 5.13261 5.0003 5 5.0003C4.86739 5.0003 4.74021 4.94762 4.64645 4.85385C4.55268 4.76008 4.5 4.63289 4.5 4.50028C4.5 4.36766 4.55268 4.24048 4.64645 4.14671C4.74021 4.05294 4.86739 4.00025 5 4.00025C5.13261 4.00025 5.25979 4.05294 5.35355 4.14671C5.44732 4.24048 5.5 4.36766 5.5 4.50028ZM3 5.0003C3.13261 5.0003 3.25979 4.94762 3.35355 4.85385C3.44732 4.76008 3.5 4.63289 3.5 4.50028C3.5 4.36766 3.44732 4.24048 3.35355 4.14671C3.25979 4.05294 3.13261 4.00025 3 4.00025C2.86739 4.00025 2.74021 4.05294 2.64645 4.14671C2.55268 4.24048 2.5 4.36766 2.5 4.50028C2.5 4.63289 2.55268 4.76008 2.64645 4.85385C2.74021 4.94762 2.86739 5.0003 3 5.0003ZM7.5 4.50028C7.5 4.63289 7.44732 4.76008 7.35355 4.85385C7.25979 4.94762 7.13261 5.0003 7 5.0003C6.86739 5.0003 6.74021 4.94762 6.64645 4.85385C6.55268 4.76008 6.5 4.63289 6.5 4.50028C6.5 4.36766 6.55268 4.24048 6.64645 4.14671C6.74021 4.05294 6.86739 4.00025 7 4.00025C7.13261 4.00025 7.25979 4.05294 7.35355 4.14671C7.44732 4.24048 7.5 4.36766 7.5 4.50028ZM3 6.50038C3.13261 6.50038 3.25979 6.44769 3.35355 6.35392C3.44732 6.26015 3.5 6.13297 3.5 6.00035C3.5 5.86774 3.44732 5.74055 3.35355 5.64678C3.25979 5.55301 3.13261 5.50033 3 5.50033C2.86739 5.50033 2.74021 5.55301 2.64645 5.64678C2.55268 5.74055 2.5 5.86774 2.5 6.00035C2.5 6.13297 2.55268 6.26015 2.64645 6.35392C2.74021 6.44769 2.86739 6.50038 3 6.50038ZM5.5 6.00035C5.5 6.13297 5.44732 6.26015 5.35355 6.35392C5.25979 6.44769 5.13261 6.50038 5 6.50038C4.86739 6.50038 4.74021 6.44769 4.64645 6.35392C4.55268 6.26015 4.5 6.13297 4.5 6.00035C4.5 5.86774 4.55268 5.74055 4.64645 5.64678C4.74021 5.55301 4.86739 5.50033 5 5.50033C5.13261 5.50033 5.25979 5.55301 5.35355 5.64678C5.44732 5.74055 5.5 5.86774 5.5 6.00035ZM7 6.50038C7.13261 6.50038 7.25979 6.44769 7.35355 6.35392C7.44732 6.26015 7.5 6.13297 7.5 6.00035C7.5 5.86774 7.44732 5.74055 7.35355 5.64678C7.25979 5.55301 7.13261 5.50033 7 5.50033C6.86739 5.50033 6.74021 5.55301 6.64645 5.64678C6.55268 5.74055 6.5 5.86774 6.5 6.00035C6.5 6.13297 6.55268 6.26015 6.64645 6.35392C6.74021 6.44769 6.86739 6.50038 7 6.50038ZM3.5 7.50042C3.5 7.63304 3.44732 7.76022 3.35355 7.85399C3.25979 7.94777 3.13261 8.00045 3 8.00045C2.86739 8.00045 2.74021 7.94777 2.64645 7.85399C2.55268 7.76022 2.5 7.63304 2.5 7.50042C2.5 7.36781 2.55268 7.24063 2.64645 7.14685C2.74021 7.05308 2.86739 7.0004 3 7.0004C3.13261 7.0004 3.25979 7.05308 3.35355 7.14685C3.44732 7.24063 3.5 7.36781 3.5 7.50042ZM5 8.00045C5.13261 8.00045 5.25979 7.94777 5.35355 7.85399C5.44732 7.76022 5.5 7.63304 5.5 7.50042C5.5 7.36781 5.44732 7.24063 5.35355 7.14685C5.25979 7.05308 5.13261 7.0004 5 7.0004C4.86739 7.0004 4.74021 7.05308 4.64645 7.14685C4.55268 7.24063 4.5 7.36781 4.5 7.50042C4.5 7.63304 4.55268 7.76022 4.64645 7.85399C4.74021 7.94777 4.86739 8.00045 5 8.00045ZM7.5 7.50042C7.5 7.63304 7.44732 7.76022 7.35355 7.85399C7.25979 7.94777 7.13261 8.00045 7 8.00045C6.86739 8.00045 6.74021 7.94777 6.64645 7.85399C6.55268 7.76022 6.5 7.63304 6.5 7.50042C6.5 7.36781 6.55268 7.24063 6.64645 7.14685C6.74021 7.05308 6.86739 7.0004 7 7.0004C7.13261 7.0004 7.25979 7.05308 7.35355 7.14685C7.44732 7.24063 7.5 7.36781 7.5 7.50042ZM3 2.00016C2.86739 2.00016 2.74021 2.05284 2.64645 2.14661C2.55268 2.24038 2.5 2.36757 2.5 2.50018C2.5 2.6328 2.55268 2.75998 2.64645 2.85375C2.74021 2.94753 2.86739 3.00021 3 3.00021H7C7.13261 3.00021 7.25979 2.94753 7.35355 2.85375C7.44732 2.75998 7.5 2.6328 7.5 2.50018C7.5 2.36757 7.44732 2.24038 7.35355 2.14661C7.25979 2.05284 7.13261 2.00016 7 2.00016H3Z" fill="#BF9D5B"/>
</svg>
