<svg width="30" height="26" viewBox="0 0 30 26" fill="none" xmlns="http://www.w3.org/2000/svg">
<path d="M0.00214214 1.02102C0.00214214 0.750229 0.114995 0.490528 0.315874 0.29905C0.516752 0.107571 0.789202 0 1.07329 0H2.01161C3.56906 0 4.46453 0.965885 4.98297 1.92973C5.33645 2.58931 5.59138 3.39387 5.80346 4.09225H27.8583C28.1894 4.09234 28.5159 4.16555 28.8122 4.30614C29.1086 4.44672 29.3667 4.65086 29.5664 4.90252C29.766 5.15418 29.9018 5.44653 29.963 5.75661C30.0243 6.0667 30.0093 6.38609 29.9192 6.68972L26.7144 17.4615C26.4594 18.3161 25.9191 19.0682 25.1753 19.6036C24.4314 20.1391 23.5247 20.4287 22.5926 20.4286H11.7119C10.772 20.4289 9.85812 20.1346 9.11098 19.5911C8.36385 19.0475 7.82494 18.2849 7.57728 17.4206L6.20193 12.6116C6.19404 12.5901 6.1869 12.5683 6.18051 12.5463L3.97181 5.40528L3.75758 4.71711C3.54335 4.01057 3.35483 3.3857 3.07204 2.8609C2.73142 2.22787 2.41865 2.04408 2.00947 2.04408H1.07115C0.78706 2.04408 0.51461 1.93651 0.313731 1.74503C0.112852 1.55355 0 1.29385 0 1.02306L0.00214214 1.02102ZM8.24568 11.9949L9.64459 16.8877C9.76862 17.3196 10.0382 17.7007 10.4117 17.9723C10.7853 18.2438 11.2421 18.3908 11.7119 18.3906H22.5947C23.0606 18.3902 23.5135 18.245 23.885 17.9771C24.2565 17.7092 24.5263 17.3332 24.6535 16.906L27.8583 6.13429H6.43544L8.24568 11.9929V11.9949Z" fill="#BF9D5B"/>
<path d="M14.9981 23.2143C14.9981 23.9531 14.7018 24.6616 14.1743 25.1841C13.6469 25.7065 12.9315 26 12.1856 26C11.4396 26 10.7243 25.7065 10.1968 25.1841C9.66937 24.6616 9.37305 23.9531 9.37305 23.2143C9.37305 22.4755 9.66937 21.7669 10.1968 21.2445C10.7243 20.7221 11.4396 20.4286 12.1856 20.4286C12.9315 20.4286 13.6469 20.7221 14.1743 21.2445C14.7018 21.7669 14.9981 22.4755 14.9981 23.2143ZM13.1231 23.2143C13.1231 22.968 13.0243 22.7318 12.8485 22.5577C12.6727 22.3835 12.4342 22.2857 12.1856 22.2857C11.9369 22.2857 11.6985 22.3835 11.5227 22.5577C11.3468 22.7318 11.2481 22.968 11.2481 23.2143C11.2481 23.4605 11.3468 23.6967 11.5227 23.8709C11.6985 24.045 11.9369 24.1428 12.1856 24.1428C12.4342 24.1428 12.6727 24.045 12.8485 23.8709C13.0243 23.6967 13.1231 23.4605 13.1231 23.2143Z" fill="#BF9D5B"/>
<path d="M24.3739 23.2143C24.3739 23.9531 24.0775 24.6616 23.5501 25.1841C23.0227 25.7065 22.3073 26 21.5614 26C20.8155 26 20.1002 25.7065 19.5728 25.1841C19.0453 24.6616 18.749 23.9531 18.749 23.2143C18.749 22.4755 19.0453 21.7669 19.5728 21.2445C20.1002 20.7221 20.8155 20.4286 21.5614 20.4286C22.3073 20.4286 23.0227 20.7221 23.5501 21.2445C24.0775 21.7669 24.3739 22.4755 24.3739 23.2143ZM22.4989 23.2143C22.4989 22.968 22.4001 22.7318 22.2243 22.5577C22.0485 22.3835 21.8101 22.2857 21.5614 22.2857C21.3128 22.2857 21.0744 22.3835 20.8985 22.5577C20.7227 22.7318 20.624 22.968 20.624 23.2143C20.624 23.4605 20.7227 23.6967 20.8985 23.8709C21.0744 24.045 21.3128 24.1428 21.5614 24.1428C21.8101 24.1428 22.0485 24.045 22.2243 23.8709C22.4001 23.6967 22.4989 23.4605 22.4989 23.2143Z" fill="#BF9D5B"/>
</svg>
