<svg width="26" height="30" viewBox="0 0 26 30" fill="none" xmlns="http://www.w3.org/2000/svg">
<g clip-path="url(#clip0_1701_4451)">
<path d="M7.44007 22.3301V22.3301V24.6419V24.6431L7.44005 24.6431C7.43648 24.7935 7.3742 24.9366 7.26654 25.0418C7.15887 25.1469 7.01435 25.2058 6.86386 25.2058C6.71337 25.2058 6.56884 25.1469 6.46118 25.0418C6.35351 24.9366 6.29123 24.7935 6.28766 24.6431L6.28763 24.6419H6.28764V22.3301V22.3301C6.28768 22.2532 6.26878 22.1775 6.23261 22.1096L7.44007 22.3301ZM7.44007 22.3301C7.44005 22.2532 7.4589 22.1776 7.49497 22.1097C7.5287 22.0462 7.57651 21.9914 7.63468 21.9494M7.44007 22.3301L6.57795 19.3975M6.57795 19.3975L6.57795 19.3975C6.67304 19.3788 6.76973 19.3693 6.86665 19.3693L6.86668 19.4193L6.86651 19.3693C7.1919 19.3682 7.50728 19.4817 7.75742 19.6898M6.57795 19.3975L6.57744 19.3976M6.57795 19.3975L6.57744 19.3976M7.75742 19.6898C7.75745 19.6898 7.75749 19.6899 7.75752 19.6899L7.72554 19.7283L7.75729 19.6897C7.75733 19.6897 7.75737 19.6898 7.75742 19.6898ZM7.75742 19.6898C7.92653 19.8288 8.06079 20.0055 8.14947 20.2057C8.23818 20.4059 8.27884 20.6241 8.26819 20.8428C8.25754 21.0616 8.19589 21.2748 8.08815 21.4654C7.98041 21.6561 7.82958 21.8189 7.6477 21.9409L7.63506 21.9494H7.63468M7.63468 21.9494C7.63871 21.9464 7.6428 21.9436 7.64693 21.9408L7.61985 21.9007L7.61896 21.8994V21.9494H7.61985H7.63468ZM6.57744 19.3976C6.3065 19.4539 6.05821 19.589 5.8637 19.7858C5.66919 19.9826 5.53711 20.2325 5.48402 20.5041C5.43094 20.7757 5.4592 21.0569 5.56527 21.3125C5.67134 21.5681 5.8505 21.7867 6.08028 21.9409L6.57744 19.3976ZM7.55299 18.5229C7.82418 18.6092 8.0772 18.7442 8.29975 18.9209L8.35371 18.9654C8.61714 19.1822 8.83003 19.4541 8.9775 19.7618C9.12497 20.0695 9.20347 20.4057 9.20751 20.7469C9.21156 21.0881 9.14104 21.4261 9.0009 21.7372C8.86076 22.0483 8.65436 22.3251 8.39615 22.5482L8.37883 22.5632V22.586V24.6418C8.37326 25.04 8.21121 25.4199 7.92772 25.6996C7.64415 25.9792 7.26186 26.1361 6.86356 26.1361C6.46526 26.1361 6.08297 25.9792 5.7994 25.6996C5.5159 25.4199 5.35386 25.04 5.34828 24.6418V22.5857V22.5625L5.33053 22.5475C4.85545 22.1466 4.55908 21.5735 4.50661 20.9541C4.45414 20.3347 4.64988 19.7198 5.05076 19.2447C5.45163 18.7697 6.02481 18.4733 6.6442 18.4208C6.9509 18.3948 7.2597 18.4295 7.55299 18.5229Z" fill="#BF9D5B" stroke="#BF9D5B" stroke-width="0.1"/>
<path d="M13.4192 8.87249V8.92088L13.4676 8.92247L25.2381 9.30929C25.2381 9.30929 25.2381 9.30929 25.2381 9.30929C25.3599 9.31334 25.4753 9.36454 25.56 9.4521C25.6447 9.53967 25.692 9.65673 25.6921 9.77856V12.8479C25.692 12.9698 25.6447 13.0868 25.56 13.1744C25.4753 13.262 25.3599 13.3132 25.2381 13.3172C25.2381 13.3172 25.2381 13.3172 25.2381 13.3172L13.4676 13.7031L13.4192 13.7047V13.7531V28.2067C13.4188 28.6156 13.2562 29.0077 12.9671 29.2968C12.6779 29.586 12.2859 29.7487 11.877 29.7492H1.85051C1.4416 29.7487 1.0496 29.586 0.760489 29.2968C0.471377 29.0077 0.308757 28.6156 0.308301 28.2067L0.308301 1.79324C0.308764 1.38435 0.471383 0.992327 0.760489 0.703167C1.0496 0.414001 1.4416 0.251308 1.85051 0.250775L11.8771 0.250775C12.286 0.251316 12.6779 0.414008 12.9671 0.703167C13.2562 0.992333 13.4188 1.38436 13.4192 1.79327V8.87249ZM12.4802 28.2068V28.2068L12.4793 13.7884L12.4793 13.7368L12.4276 13.7385L10.568 13.7996L10.5427 13.8005L10.5284 13.8214C9.99273 14.6041 9.2205 15.1948 8.32482 15.5069C7.42913 15.819 6.45704 15.8362 5.55092 15.5558C4.6448 15.2754 3.85224 14.7123 3.28933 13.9489C2.72642 13.1855 2.42273 12.2619 2.42273 11.3134C2.42273 10.3649 2.72642 9.44131 3.28933 8.6779C3.85224 7.91449 4.6448 7.35136 5.55092 7.071C6.45704 6.79064 7.42913 6.80777 8.32482 7.11987C9.2205 7.43198 9.99273 8.02267 10.5284 8.80544L10.5427 8.82634L10.568 8.82717L12.4285 8.88833L12.4802 8.89002V8.83835V1.79321V1.79316C12.48 1.63326 12.4164 1.47995 12.3034 1.36685C12.1904 1.25375 12.0371 1.19009 11.8772 1.18984H11.8771L1.85044 1.18984L1.85036 1.18984C1.69046 1.19009 1.53718 1.25375 1.42415 1.36685C1.31111 1.47995 1.24753 1.63326 1.24736 1.79316V1.79321V28.2068L1.24736 28.2068C1.24753 28.3667 1.31111 28.52 1.42415 28.6331C1.53718 28.7462 1.69046 28.8099 1.85036 28.8101H1.85044H11.8771H11.8772C12.0371 28.8099 12.1904 28.7462 12.3034 28.6331C12.4164 28.52 12.48 28.3667 12.4802 28.2068ZM9.17383 13.9343L9.27846 13.8423L9.13917 13.8468L7.17712 13.9109C7.17706 13.911 7.17699 13.911 7.17692 13.911C6.83079 13.9202 6.48632 13.8601 6.16374 13.7343C5.84109 13.6084 5.54686 13.4193 5.29835 13.1781C5.04984 12.9369 4.85206 12.6485 4.71663 12.3297C4.58121 12.011 4.51087 11.6684 4.50977 11.3221C4.50866 10.9757 4.5768 10.6327 4.71019 10.3131C4.84357 9.99348 5.0395 9.70377 5.28647 9.46098C5.53344 9.2182 5.82645 9.02724 6.14828 8.89933C6.47012 8.77142 6.81427 8.70914 7.16052 8.71616V8.71617H7.16154H7.17795L9.15103 8.78115L9.28937 8.78571L9.18588 8.6938C8.68238 8.24664 8.06049 7.95435 7.39491 7.85204C6.72933 7.74972 6.04837 7.84174 5.43381 8.11703C4.81926 8.39232 4.29724 8.83918 3.93048 9.40393C3.56371 9.96868 3.36779 10.6273 3.36624 11.3007C3.36469 11.9741 3.55759 12.6336 3.92175 13.2001C4.28592 13.7665 4.80587 14.2157 5.41915 14.4939C6.03244 14.772 6.71297 14.8671 7.37901 14.7679C8.04505 14.6686 8.66828 14.3792 9.17383 13.9343ZM24.7046 12.3953L24.753 12.3937V12.3453V10.2806V10.2322L24.7046 10.2306L7.15546 9.65377L7.15546 9.65374L7.15369 9.65374C6.71368 9.65484 6.29213 9.83068 5.98177 10.1426C5.67141 10.4545 5.49767 10.8769 5.49876 11.3169C5.49986 11.7569 5.6757 12.1785 5.98761 12.4889C6.29952 12.7992 6.72195 12.973 7.16196 12.9719L7.16348 12.9718L12.949 12.7813H12.9506V12.7813L12.9522 12.7812L24.7046 12.3953Z" fill="#BF9D5B" stroke="#BF9D5B" stroke-width="0.1"/>
</g>
<defs>
<clipPath id="clip0_1701_4451">
<rect width="26" height="30" fill="white"/>
</clipPath>
</defs>
</svg>
