<svg width="28" height="28" viewBox="0 0 28 28" fill="none" xmlns="http://www.w3.org/2000/svg">
<g clip-path="url(#clip0_1701_4457)">
<path d="M6.43345 27.0666V27.1666H6.53345H21.4668H21.4668H21.5668V27.0666V0.933351V0.833351H21.4668H6.53345H6.43345V0.933351V27.0666ZM6.06675 0.1H21.9335C22.1358 0.1 22.3001 0.264299 22.3001 0.466627V27.5333C22.3001 27.7356 22.1358 27.8999 21.9334 27.8999H6.06675C5.8644 27.8999 5.7001 27.7356 5.7001 27.5333V0.466648C5.7001 0.264299 5.8644 0.1 6.06675 0.1Z" fill="#BF9D5B" stroke="#BF9D5B" stroke-width="0.2"/>
<path d="M19.6001 27.1667H19.7001V27.0667V2.80001V2.70001H19.6001H8.4001H8.3001V2.80001V27.0667V27.1667H8.4001H19.6001ZM7.93345 1.96665H20.0668C20.2692 1.96665 20.4335 2.13096 20.4335 2.3333V27.5333C20.4335 27.7357 20.2692 27.9 20.0668 27.9H7.93345C7.7311 27.9 7.5668 27.7357 7.5668 27.5333V2.3333C7.5668 2.13095 7.7311 1.96665 7.93345 1.96665Z" fill="#BF9D5B" stroke="#BF9D5B" stroke-width="0.2"/>
<path d="M0.466649 27.1667H27.5334C27.7357 27.1667 27.9 27.331 27.9 27.5334C27.9 27.7357 27.7357 27.9 27.5333 27.9H0.466649C0.264314 27.9 0.1 27.7357 0.1 27.5333C0.1 27.3309 0.264299 27.1667 0.466649 27.1667Z" fill="#BF9D5B" stroke="#BF9D5B" stroke-width="0.2"/>
<path d="M12.0334 14.9333V14.9333C12.0334 15.1356 11.8691 15.2999 11.6668 15.2999H9.80014C9.59779 15.2999 9.4335 15.1356 9.4335 14.9333C9.4335 14.7309 9.59779 14.5666 9.80014 14.5666H11.6668C11.8692 14.5666 12.0335 14.731 12.0334 14.9333Z" fill="#BF9D5B" stroke="#BF9D5B" stroke-width="0.2"/>
</g>
<defs>
<clipPath id="clip0_1701_4457">
<rect width="28.0001" height="28" fill="white"/>
</clipPath>
</defs>
</svg>
