<svg width="19" height="24" viewBox="0 0 19 24" fill="none" xmlns="http://www.w3.org/2000/svg">
<path d="M18.0111 18H6.50509V0.500016C6.50509 0.223641 6.28133 0 6.00481 0H1.00223C0.725711 0 0.501953 0.223641 0.501953 0.500016V23.5C0.501953 23.7764 0.725711 24 1.00223 24H18.0111C18.2877 24 18.5114 23.7764 18.5114 23.5V18.5C18.5114 18.2236 18.2876 18 18.0111 18ZM1.50246 19H3.00325C3.27977 19 3.50352 18.7763 3.50352 18.5C3.50352 18.2236 3.27977 18 3.00325 18H1.50246V16H3.00325C3.27977 16 3.50352 15.7763 3.50352 15.5C3.50352 15.2236 3.27977 15 3.00325 15H1.50246V12.9999H3.00325C3.27977 12.9999 3.50352 12.7763 3.50352 12.4999C3.50352 12.2235 3.27977 11.9999 3.00325 11.9999H1.50246V9.99989H3.00325C3.27977 9.99989 3.50352 9.77625 3.50352 9.49988C3.50352 9.2235 3.27977 8.99986 3.00325 8.99986H1.50246V6.99984H3.00325C3.27977 6.99984 3.50352 6.7762 3.50352 6.49983C3.50352 6.22345 3.27977 5.99981 3.00325 5.99981H1.50246V3.99998H3.00325C3.27977 3.99998 3.50352 3.77634 3.50352 3.49997C3.50352 3.22364 3.27977 3 3.00325 3H1.50246V0.999984H5.50454V18.293L1.50246 22.293V19ZM17.5109 23H2.20989L6.21197 19H17.5109V23Z" fill="#BF9D5B"/>
<path d="M5.65146 21.8535C5.74915 21.9511 5.87718 22 6.00517 22C6.13316 22 6.26115 21.9511 6.35889 21.8535L7.21279 21H15.5101V21.5C15.5101 21.7764 15.7339 22 16.0104 22C16.2869 22 16.5107 21.7764 16.5107 21.5V20.5C16.5107 20.2236 16.2869 20 16.0104 20H7.00568C6.87281 20 6.74576 20.0527 6.65196 20.1465L5.65146 21.1465C5.45603 21.3418 5.45603 21.6582 5.65146 21.8535Z" fill="#BF9D5B"/>
</svg>
