<svg width="28" height="28" viewBox="0 0 28 28" fill="none" xmlns="http://www.w3.org/2000/svg">
<g clip-path="url(#clip0_1701_4412)">
<path d="M6.48345 27.0666V27.1166H6.53345H21.4667H21.4668H21.5168V27.0666V0.933351V0.883351H21.4668H6.53345H6.48345V0.933351V27.0666ZM6.06675 0.05H21.9334C22.1634 0.05 22.3501 0.236227 22.35 0.466638V27.5333C22.35 27.7637 22.1634 27.9499 21.9334 27.9499H6.06675C5.83675 27.9499 5.6501 27.7637 5.6501 27.5333V0.466648C5.6501 0.236227 5.83675 0.05 6.06675 0.05Z" fill="#BF9D5B" stroke="#BF9D5B" stroke-width="0.1"/>
<path d="M19.6001 27.1167H19.6501V27.0667V2.80001V2.75001H19.6001H8.40009H8.35009V2.80001V27.0667V27.1167H8.40009H19.6001ZM7.93345 1.91665H20.0667C20.2968 1.91665 20.4834 2.10293 20.4834 2.3333V27.5333C20.4834 27.7637 20.2968 27.9499 20.0668 27.9499H7.93345C7.70345 27.9499 7.5168 27.7637 7.5168 27.5333V2.3333C7.5168 2.10288 7.70345 1.91665 7.93345 1.91665Z" fill="#BF9D5B" stroke="#BF9D5B" stroke-width="0.1"/>
<path d="M10.2168 8.4V8.45H10.2668H17.7335H17.7835V8.4C17.7835 6.3139 16.0862 4.61665 14.0001 4.61665C11.914 4.61665 10.2168 6.3139 10.2168 8.4ZM9.3835 8.4C9.3835 5.85446 11.4545 3.78335 14.0001 3.78335C16.5457 3.78335 18.6168 5.8544 18.6168 8.4V8.86665C18.6168 9.09707 18.4301 9.2833 18.2001 9.2833H9.80014C9.57015 9.2833 9.3835 9.09707 9.3835 8.86665V8.4Z" fill="#BF9D5B" stroke="#BF9D5B" stroke-width="0.1"/>
<path d="M13.4834 10.7333V10.7334V17.2666C13.4834 17.4971 13.2968 17.6833 13.0668 17.6833H9.80014C9.57015 17.6833 9.3835 17.4971 9.3835 17.2666V10.7333C9.3835 10.5029 9.57015 10.3166 9.80014 10.3166H13.0668C13.2968 10.3166 13.4835 10.5029 13.4834 10.7333ZM12.6001 16.85H12.6501V16.8V11.2V11.15H12.6001H10.2668H10.2168V11.2V16.8V16.85H10.2668H12.6001Z" fill="#BF9D5B" stroke="#BF9D5B" stroke-width="0.1"/>
<path d="M17.7334 16.85H17.7834V16.8V11.2V11.15H17.7334H15.4001H15.3501V11.2V16.8V16.85H15.4001H17.7334ZM14.9334 10.3166H18.2001C18.4301 10.3166 18.6167 10.5029 18.6167 10.7334V17.2666C18.6167 17.4971 18.4301 17.6833 18.2001 17.6833H14.9334C14.7034 17.6833 14.5168 17.4971 14.5168 17.2666V10.7333C14.5168 10.5029 14.7034 10.3166 14.9334 10.3166Z" fill="#BF9D5B" stroke="#BF9D5B" stroke-width="0.1"/>
<path d="M13.4834 19.1333V19.1334V25.6666C13.4834 25.8971 13.2968 26.0833 13.0668 26.0833H9.80014C9.57015 26.0833 9.3835 25.8971 9.3835 25.6666V19.1333C9.3835 18.9029 9.57015 18.7166 9.80014 18.7166H13.0668C13.2968 18.7166 13.4835 18.9029 13.4834 19.1333ZM12.6001 25.25H12.6501V25.2V19.6V19.55H12.6001H10.2668H10.2168V19.6V25.2V25.25H10.2668H12.6001Z" fill="#BF9D5B" stroke="#BF9D5B" stroke-width="0.1"/>
<path d="M17.7334 25.25H17.7834V25.2V19.6V19.55H17.7334H15.4001H15.3501V19.6V25.2V25.25H15.4001H17.7334ZM14.9334 18.7166H18.2001C18.4301 18.7166 18.6167 18.9029 18.6167 19.1334V25.6666C18.6167 25.8971 18.4301 26.0833 18.2001 26.0833H14.9334C14.7034 26.0833 14.5168 25.8971 14.5168 25.6666V19.1333C14.5168 18.9029 14.7034 18.7166 14.9334 18.7166Z" fill="#BF9D5B" stroke="#BF9D5B" stroke-width="0.1"/>
<path d="M13.5832 4.2C13.5832 3.9696 13.7699 3.78335 14.0001 3.78335C14.2303 3.78335 14.417 3.9696 14.417 4.2V8.86665C14.417 9.09705 14.2303 9.2833 14.0001 9.2833C13.7699 9.2833 13.5832 9.09705 13.5832 8.86665V4.2Z" fill="#BF9D5B" stroke="#BF9D5B" stroke-width="0.1"/>
<path d="M17.4884 5.37817L17.4884 5.37821C17.6514 5.54118 17.6514 5.80444 17.4884 5.96735L17.4884 5.96736L14.2946 9.16122C14.2133 9.24248 14.1067 9.28329 14 9.28329C13.8933 9.28329 13.7867 9.24248 13.7054 9.16122L13.7054 9.16121C13.5425 8.9983 13.5425 8.73504 13.7054 8.57207L16.8993 5.37821C17.0622 5.21527 17.3259 5.21533 17.4884 5.37817Z" fill="#BF9D5B" stroke="#BF9D5B" stroke-width="0.1"/>
<path d="M14.2946 8.57207L14.2946 8.57207C14.4576 8.73504 14.4576 8.99831 14.2946 9.16128C14.2133 9.24254 14.1068 9.28335 14 9.28335C13.8933 9.28335 13.7867 9.24254 13.7054 9.16128C13.7054 9.16128 13.7054 9.16128 13.7054 9.16128L10.5116 5.96693L10.5116 5.96692C10.3486 5.80401 10.3486 5.54069 10.5116 5.37778L10.5116 5.37777C10.6745 5.21479 10.9382 5.21485 11.1007 5.37773L11.1007 5.37777L14.2946 8.57207Z" fill="#BF9D5B" stroke="#BF9D5B" stroke-width="0.1"/>
<path d="M6.91665 27.5333V27.5334C6.91665 27.7638 6.73 27.95 6.5 27.95H0.466648C0.236654 27.95 0.05 27.7638 0.05 27.5333C0.05 27.3029 0.23665 27.1167 0.466648 27.1167H6.5C6.73005 27.1167 6.91669 27.3029 6.91665 27.5333Z" fill="#BF9D5B" stroke="#BF9D5B" stroke-width="0.1"/>
<path d="M21.9334 27.1167H27.5334C27.7634 27.1167 27.9501 27.3029 27.9501 27.5333C27.9501 27.7637 27.7634 27.9499 27.5334 27.9499H21.9334C21.7034 27.9499 21.5168 27.7637 21.5168 27.5333C21.5168 27.3029 21.7034 27.1167 21.9334 27.1167Z" fill="#BF9D5B" stroke="#BF9D5B" stroke-width="0.1"/>
</g>
<defs>
<clipPath id="clip0_1701_4412">
<rect width="28" height="28" fill="white"/>
</clipPath>
</defs>
</svg>
