<svg width="23" height="23" viewBox="0 0 23 23" fill="none" xmlns="http://www.w3.org/2000/svg">
<circle cx="11.5" cy="11.5" r="11.5" fill="#8D8A84"/>
<path d="M15.2841 6.8999H8.2912C7.50168 6.8999 6.90015 7.50144 6.90015 8.29096V15.2838C6.90015 16.0734 7.50168 16.6749 8.2912 16.6749H15.2841C16.0736 16.6749 16.6751 16.0734 16.6751 15.2838V8.29096C16.6751 7.50144 16.0736 6.8999 15.2841 6.8999ZM11.7876 14.7199C13.4043 14.7199 14.7201 13.4416 14.7201 11.9002C14.7201 11.637 14.6825 11.3362 14.6074 11.1107H15.4345V15.0959C15.4345 15.2838 15.2841 15.4718 15.0585 15.4718H8.51678C8.3288 15.4718 8.14082 15.3214 8.14082 15.0959V11.0731H9.00553C8.93034 11.3362 8.89274 11.5994 8.89274 11.8626C8.85515 13.4416 10.171 14.7199 11.7876 14.7199ZM11.7876 13.592C10.735 13.592 9.90784 12.7649 9.90784 11.7498C9.90784 10.7347 10.735 9.90759 11.7876 9.90759C12.8403 9.90759 13.6675 10.7347 13.6675 11.7498C13.6675 12.8025 12.8403 13.592 11.7876 13.592ZM15.3969 9.56923C15.3969 9.79481 15.2089 9.98279 14.9833 9.98279H13.9306C13.705 9.98279 13.5171 9.79481 13.5171 9.56923V8.55413C13.5171 8.32856 13.705 8.14058 13.9306 8.14058H14.9833C15.2089 8.14058 15.3969 8.32856 15.3969 8.55413V9.56923Z" fill="#C4C4C4"/>
</svg>
