<svg width="23" height="23" viewBox="0 0 23 23" fill="none" xmlns="http://www.w3.org/2000/svg">
<circle cx="11.5" cy="11.5" r="11.5" fill="#D7C299"/>
<path d="M15.2843 6.8999H8.29145C7.50193 6.8999 6.90039 7.50144 6.90039 8.29096V15.2838C6.90039 16.0734 7.50193 16.6749 8.29145 16.6749H15.2843C16.0739 16.6749 16.6754 16.0734 16.6754 15.2838V8.29096C16.6754 7.50144 16.0739 6.8999 15.2843 6.8999ZM11.7879 14.7199C13.4045 14.7199 14.7204 13.4416 14.7204 11.9002C14.7204 11.637 14.6828 11.3362 14.6076 11.1107H15.4347V15.0959C15.4347 15.2838 15.2843 15.4718 15.0588 15.4718H8.51703C8.32905 15.4718 8.14106 15.3214 8.14106 15.0959V11.0731H9.00578C8.93059 11.3362 8.89299 11.5994 8.89299 11.8626C8.85539 13.4416 10.1713 14.7199 11.7879 14.7199ZM11.7879 13.592C10.7352 13.592 9.90808 12.7649 9.90808 11.7498C9.90808 10.7347 10.7352 9.90759 11.7879 9.90759C12.8406 9.90759 13.6677 10.7347 13.6677 11.7498C13.6677 12.8025 12.8406 13.592 11.7879 13.592ZM15.3971 9.56923C15.3971 9.79481 15.2091 9.98279 14.9836 9.98279H13.9309C13.7053 9.98279 13.5173 9.79481 13.5173 9.56923V8.55413C13.5173 8.32856 13.7053 8.14058 13.9309 8.14058H14.9836C15.2091 8.14058 15.3971 8.32856 15.3971 8.55413V9.56923Z" fill="#F0E8D9"/>
</svg>
