<svg width="10" height="13" viewBox="0 0 10 13" fill="none" xmlns="http://www.w3.org/2000/svg">
<path d="M4.99997 13C4.09779 12.2221 3.26155 11.3692 2.49999 10.4504C1.35714 9.07048 6.31184e-07 7.01546 6.31184e-07 5.05719C-0.00101234 3.01195 1.21731 1.16767 3.08646 0.384944C4.95561 -0.397778 7.10715 0.0353476 8.5371 1.48221C9.47742 2.42856 10.0042 3.71586 9.99998 5.05719C9.99998 7.01546 8.64281 9.07048 7.49996 10.4504C6.7384 11.3692 5.90216 12.2221 4.99997 13ZM4.99998 1.44683C3.02852 1.44921 1.43093 3.06423 1.42857 5.05719C1.42857 5.89913 1.80499 7.357 3.59641 9.52394C4.03794 10.0569 4.50642 10.5664 4.99998 11.0504C5.49358 10.5669 5.96229 10.0582 6.40425 9.52611C8.19496 7.35628 8.57139 5.89841 8.57139 5.05719C8.56902 3.06423 6.97143 1.44921 4.99998 1.44683ZM4.99998 7.22341C3.81651 7.22341 2.85713 6.25356 2.85713 5.05719C2.85713 3.86082 3.81651 2.89097 4.99998 2.89097C6.18344 2.89097 7.14282 3.86082 7.14282 5.05719C7.14282 5.63171 6.91706 6.1827 6.5152 6.58894C6.11334 6.99519 5.56829 7.22341 4.99998 7.22341Z" fill="#BF9D5B"/>
</svg>
