<svg width="12" height="12" viewBox="0 0 12 12" fill="none" xmlns="http://www.w3.org/2000/svg">
<path d="M3.8281 3.78793C3.11267 4.39582 2.8505 5.50447 3.46825 6.39388C4.04632 7.22617 4.7745 7.95419 5.6066 8.532C6.49604 9.14963 7.60464 8.88738 8.21247 8.17193L8.21924 8.17506C8.99563 8.53471 9.82026 8.78123 10.6667 8.90684V10.6667L10.6659 10.6667L10.664 10.6667C5.34768 10.6742 1.32765 6.60741 1.33334 1.33573V1.33333H3.09291L3.09303 1.33411C3.21866 2.18043 3.46507 3.00436 3.82476 3.78072L3.8281 3.78793ZM10.6659 12H11.3333C11.7015 12 12 11.7015 12 11.3333V8.33181C12 8.00142 11.758 7.72087 11.4312 7.67237L10.8618 7.58786C10.1415 7.48097 9.44036 7.27128 8.77967 6.96523L8.27777 6.73273C7.98692 6.598 7.64136 6.68933 7.45505 6.95017L7.22784 7.26829C7.0287 7.54709 6.64852 7.63224 6.3671 7.43682C5.66557 6.94968 5.05071 6.33495 4.56335 5.63326C4.36788 5.35183 4.45304 4.97158 4.73189 4.77244L5.04985 4.54538C5.31073 4.35907 5.40207 4.01347 5.26731 3.7226L5.03456 3.22022C4.72849 2.5596 4.51882 1.8585 4.41191 1.13833L4.32736 0.568773C4.27884 0.241973 3.9983 0 3.66792 0H0.666674C0.298484 0 6.81747e-06 0.298477 6.81747e-06 0.666667V1.33429C-0.00647291 7.33858 4.60682 12.0086 10.6659 12Z" fill="#BF9D5B"/>
</svg>
