<svg width="30" height="30" viewBox="0 0 30 30" fill="none" xmlns="http://www.w3.org/2000/svg">
<path d="M6.00192 8.54978C6.00192 8.40397 6.06211 8.26413 6.16924 8.16103C6.27638 8.05792 6.42169 8 6.5732 8H7.07363C7.90427 8 8.38186 8.52009 8.65836 9.03908C8.84688 9.39424 8.98284 9.82747 9.09595 10.2035H20.8585C21.0351 10.2036 21.2092 10.243 21.3673 10.3187C21.5253 10.3944 21.663 10.5043 21.7695 10.6398C21.876 10.7753 21.9484 10.9327 21.981 11.0997C22.0137 11.2667 22.0057 11.4387 21.9577 11.6022L20.2484 17.4023C20.1124 17.8625 19.8243 18.2675 19.4276 18.5558C19.0308 18.8441 18.5473 19.0001 18.0501 19H12.2471C11.7458 19.0002 11.2584 18.8417 10.86 18.549C10.4615 18.2564 10.1741 17.8457 10.042 17.3803L9.30847 14.7909C9.30426 14.7793 9.30045 14.7675 9.29704 14.7557L8.11907 10.9105L8.00482 10.54C7.89056 10.1595 7.79002 9.82307 7.6392 9.54048C7.45753 9.19962 7.29072 9.10066 7.07249 9.10066H6.57205C6.42054 9.10066 6.27524 9.04274 6.1681 8.93963C6.06097 8.83653 6.00078 8.69669 6.00078 8.55088L6.00192 8.54978ZM10.3985 14.4588L11.1445 17.0934C11.2107 17.3259 11.3545 17.5311 11.5537 17.6774C11.7529 17.8236 11.9966 17.9028 12.2471 17.9026H18.0513C18.2997 17.9024 18.5413 17.8242 18.7394 17.68C18.9376 17.5357 19.0814 17.3333 19.1493 17.1033L20.8585 11.3031H9.43301L10.3985 14.4577V14.4588Z" fill="#BF9D5B"/>
<path d="M14.0006 20.5C14.0006 20.8978 13.8426 21.2794 13.5613 21.5607C13.28 21.842 12.8985 22 12.5006 22C12.1028 22 11.7213 21.842 11.44 21.5607C11.1586 21.2794 11.0006 20.8978 11.0006 20.5C11.0006 20.1022 11.1586 19.7206 11.44 19.4393C11.7213 19.158 12.1028 19 12.5006 19C12.8985 19 13.28 19.158 13.5613 19.4393C13.8426 19.7206 14.0006 20.1022 14.0006 20.5V20.5ZM13.0006 20.5C13.0006 20.3674 12.9479 20.2402 12.8542 20.1464C12.7604 20.0527 12.6332 20 12.5006 20C12.368 20 12.2408 20.0527 12.1471 20.1464C12.0533 20.2402 12.0006 20.3674 12.0006 20.5C12.0006 20.6326 12.0533 20.7598 12.1471 20.8536C12.2408 20.9473 12.368 21 12.5006 21C12.6332 21 12.7604 20.9473 12.8542 20.8536C12.9479 20.7598 13.0006 20.6326 13.0006 20.5Z" fill="#BF9D5B"/>
<path d="M19.0004 20.5C19.0004 20.8978 18.8423 21.2794 18.561 21.5607C18.2797 21.842 17.8982 22 17.5004 22C17.1026 22 16.7211 21.842 16.4398 21.5607C16.1585 21.2794 16.0005 20.8978 16.0005 20.5C16.0005 20.1022 16.1585 19.7206 16.4398 19.4393C16.7211 19.158 17.1026 19 17.5004 19C17.8982 19 18.2797 19.158 18.561 19.4393C18.8423 19.7206 19.0004 20.1022 19.0004 20.5V20.5ZM18.0004 20.5C18.0004 20.3674 17.9477 20.2402 17.854 20.1464C17.7602 20.0527 17.633 20 17.5004 20C17.3678 20 17.2406 20.0527 17.1469 20.1464C17.0531 20.2402 17.0004 20.3674 17.0004 20.5C17.0004 20.6326 17.0531 20.7598 17.1469 20.8536C17.2406 20.9473 17.3678 21 17.5004 21C17.633 21 17.7602 20.9473 17.854 20.8536C17.9477 20.7598 18.0004 20.6326 18.0004 20.5Z" fill="#BF9D5B"/>
<path d="M0.250488 0.25H29.7505V29.75H0.250488V0.25Z" stroke="#C8BFB3" stroke-width="0.5"/>
</svg>
