<svg width="10" height="10" viewBox="0 0 10 10" fill="none" xmlns="http://www.w3.org/2000/svg">
<path d="M9.14793 10L5.70653 6.55821C4.17562 7.64654 2.06608 7.38033 0.853576 5.9458C-0.358931 4.51126 -0.2699 2.38699 1.05839 1.05893C2.38633 -0.269709 4.51094 -0.35912 5.94583 0.853249C7.38071 2.06562 7.64709 4.17524 6.5586 5.70619L10 9.14798L9.14853 9.9994L9.14793 10ZM3.61279 1.20464C2.4709 1.20438 1.48574 2.00589 1.25378 3.1239C1.02181 4.24192 1.60679 5.36916 2.65455 5.82315C3.7023 6.27713 4.92486 5.93309 5.58203 4.99932C6.2392 4.06554 6.15037 2.79868 5.36932 1.96574L5.73363 2.32702L5.32295 1.91757L5.31573 1.91034C4.86518 1.45704 4.25193 1.20291 3.61279 1.20464Z" fill="white"/>
</svg>
