<svg width="174" height="29" viewBox="0 0 174 29" fill="none" xmlns="http://www.w3.org/2000/svg">
<path d="M9.73933 19.046C7.47197 19.046 5.62422 18.8408 4.19608 18.4303C2.76794 18.0061 1.70788 17.2673 1.01589 16.2137C0.338631 15.1602 0 13.6756 0 11.7601V7.26539C0 5.36353 0.338631 3.88582 1.01589 2.83227C1.70788 1.77872 2.76794 1.04671 4.19608 0.636235C5.62422 0.212078 7.47197 0 9.73933 0H16.0997C17.2628 0 18.1536 0.205237 18.7719 0.615712C19.3903 1.0125 19.8173 1.53244 20.0529 2.17551C20.2884 2.81859 20.4062 3.49587 20.4062 4.20736C20.4062 4.86412 20.3105 5.33616 20.1191 5.6235C19.9424 5.91083 19.648 6.05449 19.2357 6.05449C18.7793 6.05449 18.4701 5.8903 18.3082 5.56192C18.1609 5.23355 18.0873 4.89148 18.0873 4.53574C18.0726 3.82425 17.9254 3.24959 17.6456 2.81175C17.3806 2.37391 16.7181 2.15499 15.658 2.15499H9.73933C7.84005 2.15499 6.34565 2.27129 5.25615 2.50389C4.18136 2.72281 3.42312 3.2017 2.98143 3.94055C2.53973 4.67941 2.31889 5.80137 2.31889 7.30644V11.7396C2.31889 13.1899 2.53237 14.2845 2.95934 15.0234C3.38631 15.7622 4.13719 16.2616 5.21198 16.5216C6.30149 16.7679 7.8106 16.891 9.73933 16.891H15.658C16.7328 16.891 17.3953 16.6858 17.6456 16.2753C17.8959 15.8648 18.0432 15.2765 18.0873 14.5103C18.1168 13.963 18.2346 13.573 18.4407 13.3404C18.6468 13.1078 18.9192 12.9915 19.2578 12.9915C19.6406 12.9915 19.9277 13.1283 20.1191 13.402C20.3105 13.6756 20.4062 14.1408 20.4062 14.7976C20.4062 15.6049 20.2737 16.33 20.0087 16.9731C19.7584 17.6162 19.3093 18.1224 18.6615 18.4919C18.0137 18.8613 17.1156 19.046 15.9672 19.046H9.73933Z" fill="#413E3A"/>
<path d="M32.9548 19.3333C32.145 19.3333 31.7401 18.9023 31.7401 18.0403V2.15499H25.0264C24.0399 2.15499 23.5467 1.7924 23.5467 1.06723C23.5467 0.355745 24.0399 0 25.0264 0H40.8611C41.8328 0 42.3187 0.355745 42.3187 1.06723C42.3187 1.7924 41.8328 2.15499 40.8611 2.15499H34.1694V18.0403C34.1694 18.4508 34.059 18.7655 33.8382 18.9844C33.632 19.217 33.3376 19.3333 32.9548 19.3333Z" fill="#413E3A"/>
<path d="M46.2321 19.046V0H59.6154C61.6325 0 63.3036 0.430998 64.6286 1.29299C65.9684 2.15499 66.6383 3.46167 66.6383 5.21302C66.6383 6.37603 66.4028 7.25171 65.9316 7.84006C65.4605 8.4284 64.8053 8.90045 63.9661 9.25619C65.7476 10.2824 66.6383 11.7396 66.6383 13.6277C66.6383 14.8728 66.3292 15.899 65.7108 16.7063C65.1071 17.4999 64.2753 18.0882 63.2152 18.4713C62.1552 18.8544 60.9552 19.046 59.6154 19.046H46.2321ZM48.551 16.891H59.3062C62.6484 16.891 64.3195 16.0153 64.3195 14.264C64.3195 12.9094 63.9219 11.9106 63.1269 11.2675C62.3466 10.6108 61.1319 10.2824 59.4829 10.2824H48.551V16.891ZM48.551 8.12739H59.4829C61.1908 8.12739 62.4275 7.90163 63.1931 7.45011C63.9735 6.99858 64.3636 6.10238 64.3636 4.7615C64.3636 3.02383 62.6778 2.15499 59.3062 2.15499H48.551V8.12739Z" fill="#413E3A"/>
<path d="M106.626 29C105.882 29 105.51 28.4753 105.51 27.4258V1.57416C105.51 0.554281 105.897 0.0443419 106.67 0.0443419C107.064 0.0443419 107.348 0.17737 107.524 0.443425C107.713 0.70948 107.808 1.13812 107.808 1.72936V4.32339L107.414 3.79128C108.246 2.6236 109.311 1.75892 110.609 1.19725C111.908 0.635576 113.433 0.354739 115.184 0.354739H116.453C118.685 0.354739 120.509 0.583843 121.925 1.04205C123.34 1.48547 124.383 2.27625 125.054 3.41437C125.725 4.5525 126.061 6.14883 126.061 8.20336V13.0589C126.061 15.1282 125.725 16.7319 125.054 17.87C124.383 19.0082 123.34 19.8063 121.925 20.2645C120.509 20.708 118.693 20.9297 116.475 20.9297H107.808V27.4258C107.808 28.4753 107.414 29 106.626 29ZM107.808 18.6017H116.475C118.386 18.6017 119.867 18.4687 120.918 18.2026C121.968 17.9218 122.705 17.3823 123.128 16.5841C123.551 15.7712 123.763 14.5887 123.763 13.0367V8.24771C123.763 6.60703 123.537 5.39501 123.085 4.61162C122.632 3.81346 121.873 3.29613 120.808 3.05963C119.743 2.80836 118.291 2.68272 116.453 2.68272H115.184C112.762 2.68272 110.923 3.35525 109.668 4.70031C108.428 6.04536 107.808 8.00382 107.808 10.5757V18.6017Z" fill="#413E3A"/>
<path d="M133.043 21.2401C132.679 21.2401 132.394 21.1144 132.19 20.8631C132 20.6267 131.905 20.2793 131.905 19.8211V1.48547C131.905 1.01249 132 0.657748 132.19 0.421254C132.394 0.169979 132.686 0.0443419 133.065 0.0443419C133.43 0.0443419 133.707 0.169979 133.897 0.421254C134.101 0.657748 134.203 1.01249 134.203 1.48547V9.44495H138.887C139.412 9.44495 139.93 9.14195 140.441 8.53593C140.952 7.91514 141.506 7.10958 142.104 6.11927C142.6 5.30632 143.177 4.41208 143.833 3.43654C144.49 2.46101 145.365 1.64067 146.46 0.975536C147.495 0.325179 148.612 0 149.808 0C150.363 0 150.793 0.103466 151.099 0.310398C151.406 0.502549 151.559 0.783384 151.559 1.1529C151.559 1.64067 151.377 1.95846 151.012 2.10627C150.647 2.25408 150.297 2.32798 149.961 2.32798C148.955 2.37232 148.079 2.71967 147.335 3.37003C146.605 4.00561 145.927 4.81116 145.3 5.7867C144.76 6.67355 144.322 7.39042 143.986 7.93731C143.651 8.46942 143.337 8.91284 143.045 9.26758C142.768 9.62232 142.454 9.98446 142.104 10.354C143.592 10.96 144.731 11.7212 145.518 12.6376C146.321 13.5392 146.919 14.5 147.313 15.5199C147.765 16.658 148.159 17.4931 148.495 18.0252C148.845 18.5573 149.334 18.853 149.961 18.9121C150.399 18.9269 150.771 19.0155 151.077 19.1781C151.398 19.3259 151.559 19.6142 151.559 20.0428C151.559 20.841 151.005 21.2401 149.896 21.2401C148.874 21.2401 148.028 20.9518 147.357 20.3754C146.7 19.7989 146.16 19.0747 145.737 18.2026C145.489 17.7296 145.219 17.1827 144.928 16.5619C144.636 15.9264 144.242 15.2908 143.746 14.6552C143.264 14.0048 142.608 13.4358 141.776 12.948C140.579 12.1646 138.865 11.7729 136.633 11.7729H134.203V19.8433C134.203 20.2867 134.101 20.6267 133.897 20.8631C133.693 21.1144 133.408 21.2401 133.043 21.2401Z" fill="#413E3A"/>
<path d="M172.839 21.2401C172.46 21.2401 172.197 21.0996 172.052 20.8188C171.906 20.538 171.818 20.0576 171.789 19.3777C171.774 18.683 171.76 17.7222 171.745 16.4954L172.095 17.3379C171.278 18.5795 170.228 19.4885 168.944 20.065C167.66 20.6414 166.135 20.9297 164.37 20.9297H160.299C158.913 20.9297 157.782 20.4419 156.906 19.4664C156.046 18.4908 155.615 16.9832 155.615 14.9434C155.615 13.3175 155.885 12.0316 156.425 11.0856C156.965 10.1397 157.694 9.43017 158.613 8.95719C159.547 8.4842 160.583 8.1738 161.721 8.02599C162.874 7.87818 164.056 7.80428 165.267 7.80428H172.73L171.701 8.82416V5.23242C171.701 4.28644 171.526 3.6287 171.176 3.25917C170.841 2.87487 170.213 2.68272 169.294 2.68272H163.122C161.882 2.68272 160.875 2.7788 160.102 2.97095C159.343 3.14832 158.789 3.42915 158.438 3.81346C158.088 4.19776 157.913 4.69292 157.913 5.29893C157.899 5.77192 157.818 6.13405 157.672 6.38532C157.541 6.63659 157.235 6.76223 156.753 6.76223C155.994 6.76223 155.615 6.20795 155.615 5.09939C155.615 3.51784 156.257 2.33537 157.541 1.55199C158.84 0.753822 160.598 0.354739 162.816 0.354739H169.6C171.278 0.354739 172.431 0.768603 173.058 1.59633C173.686 2.40928 173.999 3.87258 173.999 5.98624V19.7102C173.999 20.7301 173.613 21.2401 172.839 21.2401ZM160.342 18.646H164.37C167.054 18.646 168.958 17.8774 170.082 16.3402C171.22 14.7882 171.76 12.4972 171.701 9.46713L172.38 10.0879H165.267C163.647 10.0879 162.29 10.1988 161.196 10.4205C160.102 10.6274 159.277 11.0635 158.723 11.7286C158.183 12.3937 157.913 13.3988 157.913 14.7439C157.913 16.1333 158.154 17.131 158.635 17.737C159.131 18.343 159.701 18.646 160.342 18.646Z" fill="#413E3A"/>
<path d="M74.543 0.5H97.6068V22.7H74.543V0.5Z" stroke="#595146"/>
<path d="M74.043 0L98.1068 5.8V29L74.043 23.2V0Z" fill="#BF9D5B"/>
<path d="M74.043 0L98.1068 5.8V29L74.043 23.2V0Z" fill="#BF9D5B"/>
<ellipse cx="93.4795" cy="16.4334" rx="0.926008" ry="0.966667" fill="#413E3A"/>
</svg>
