<svg width="15" height="15" viewBox="0 0 15 15" fill="none" xmlns="http://www.w3.org/2000/svg">
<g clip-path="url(#clip0_1633_4480)">
<path d="M12.287 2.78091C9.67474 0.184155 5.45497 0.184155 2.84273 2.78091C0.699352 4.91158 0.297469 8.17417 1.77104 10.7709L0.833313 14.1667L4.38328 13.2345C5.38799 13.7672 6.45968 14.0335 7.53136 14.0335C11.2153 14.0335 14.1624 11.1038 14.1624 7.44175C14.2294 5.71058 13.4926 4.04599 12.287 2.78091ZM10.4785 12.1026C9.60776 12.6353 8.60305 12.9682 7.53136 12.9682C6.52666 12.9682 5.58893 12.7018 4.71818 12.2358L4.51724 12.1026L2.44085 12.6353L2.97669 10.6378L2.84273 10.438C1.2352 7.77467 2.03896 4.4455 4.6512 2.78091C7.26344 1.11632 10.6125 1.98191 12.22 4.51208C13.8275 7.10883 13.0907 10.5046 10.4785 12.1026Z" fill="#BF9D5B"/>
<path d="M6.29341 6.27106C5.89595 6.60878 5.7503 7.2247 6.09349 7.71881C6.41464 8.18119 6.81919 8.58565 7.28146 8.90666C7.77559 9.24978 8.39149 9.10409 8.72917 8.70662L8.73293 8.70836C9.16426 8.90816 9.62238 9.04512 10.0926 9.1149L10.0922 10.0926L10.0912 10.0926C7.13762 10.0968 4.90427 7.83744 4.90743 4.90873V4.9074L5.88504 4.90783C5.95483 5.37801 6.09173 5.83574 6.29155 6.26706L6.29341 6.27106ZM10.0922 10.8333H10.463C10.6675 10.8333 10.8334 10.6675 10.8334 10.4629V8.79544C10.8334 8.61189 10.6989 8.45603 10.5174 8.42908L10.201 8.38213C9.80086 8.32275 9.41133 8.20626 9.04428 8.03623L8.76544 7.90706C8.60386 7.83221 8.41188 7.88295 8.30838 8.02786L8.18215 8.20459C8.07152 8.35948 7.86031 8.40679 7.70396 8.29822C7.31422 8.02759 6.97264 7.68607 6.70188 7.29625C6.59328 7.13989 6.6406 6.92865 6.79551 6.81801L6.97216 6.69187C7.11709 6.58836 7.16784 6.39636 7.09297 6.23477L6.96366 5.95567C6.79363 5.58866 6.67714 5.19915 6.61775 4.79906L6.57077 4.48264C6.54382 4.30109 6.38796 4.16666 6.20442 4.16666H4.53706C4.33251 4.16666 4.16669 4.33248 4.16669 4.53703V4.90793C4.16309 8.24364 6.72603 10.8381 10.0922 10.8333Z" fill="#BF9D5B"/>
</g>
<defs>
<clipPath id="clip0_1633_4480">
<rect width="15" height="15" fill="white"/>
</clipPath>
</defs>
</svg>
