<svg width="23" height="23" viewBox="0 0 23 23" fill="none" xmlns="http://www.w3.org/2000/svg">
<circle cx="11.5" cy="11.5" r="11.5" fill="#D7C299"/>
<path d="M5.37646 11.715L8.02036 12.7009L9.05103 16.0169C9.09584 16.241 9.36472 16.2858 9.54396 16.1514L11.0227 14.9414C11.1572 14.807 11.3812 14.807 11.5605 14.9414L14.2044 16.8684C14.3836 17.0028 14.6525 16.9132 14.6973 16.6891L16.669 7.27863C16.7138 7.05457 16.4898 6.83051 16.2657 6.92014L5.37646 11.1324C5.10759 11.2221 5.10759 11.6254 5.37646 11.715ZM8.9166 12.2079L14.1148 9.02629C14.2044 8.98148 14.294 9.11591 14.2044 9.16073L9.94727 13.149C9.81283 13.2834 9.67839 13.4627 9.67839 13.6867L9.54396 14.7622C9.54396 14.8966 9.3199 14.9414 9.27509 14.7622L8.73734 12.7905C8.60291 12.5664 8.69254 12.2976 8.9166 12.2079Z" fill="#F0E8D9"/>
</svg>
