<svg width="23" height="23" viewBox="0 0 23 23" fill="none" xmlns="http://www.w3.org/2000/svg">
<circle cx="11.5" cy="11.5" r="11.5" fill="#8D8A84"/>
<path d="M5.3767 11.715L8.02061 12.7009L9.05127 16.0169C9.09609 16.241 9.36496 16.2858 9.54421 16.1514L11.023 14.9414C11.1574 14.807 11.3815 14.807 11.5607 14.9414L14.2046 16.8684C14.3839 17.0028 14.6528 16.9132 14.6976 16.6891L16.6693 7.27863C16.7141 7.05457 16.49 6.83051 16.266 6.92014L5.3767 11.1324C5.10783 11.2221 5.10783 11.6254 5.3767 11.715ZM8.91684 12.2079L14.115 9.02629C14.2046 8.98148 14.2943 9.11591 14.2046 9.16073L9.94751 13.149C9.81308 13.2834 9.67864 13.4627 9.67864 13.6867L9.54421 14.7622C9.54421 14.8966 9.32015 14.9414 9.27533 14.7622L8.73759 12.7905C8.60315 12.5664 8.69279 12.2976 8.91684 12.2079Z" fill="#C4C4C4"/>
</svg>
