<svg width="23" height="23" viewBox="0 0 23 23" fill="none" xmlns="http://www.w3.org/2000/svg">
<circle cx="11.5" cy="11.5" r="11.5" fill="#D7C299"/>
<path d="M16.0579 6.93592C14.9219 5.80389 13.4073 5.17499 11.8085 5.17499C8.48475 5.17499 5.79207 7.85832 5.79207 11.1706C5.79207 12.2187 6.08659 13.2669 6.59146 14.1474L5.75 17.25L8.94756 16.4114C9.8311 16.8726 10.7988 17.1242 11.8085 17.1242C15.1323 17.1242 17.825 14.4409 17.825 11.1286C17.7829 9.57733 17.1939 8.06796 16.0579 6.93592ZM14.7116 13.3088C14.5854 13.6443 13.9963 13.9797 13.7018 14.0216C13.4494 14.0635 13.1128 14.0635 12.7762 13.9797C12.5659 13.8958 12.2713 13.812 11.9348 13.6443C10.4201 13.0154 9.45244 11.506 9.36829 11.3802C9.28415 11.2963 8.7372 10.5836 8.7372 9.82889C8.7372 9.07421 9.11585 8.73879 9.24207 8.57108C9.36829 8.40337 9.53658 8.40337 9.6628 8.40337C9.74695 8.40337 9.87317 8.40337 9.95731 8.40337C10.0415 8.40337 10.1677 8.36145 10.2939 8.65494C10.4201 8.94842 10.7146 9.70311 10.7567 9.74504C10.7988 9.82889 10.7988 9.91275 10.7567 9.9966C10.7146 10.0805 10.6726 10.1643 10.5884 10.2482C10.5043 10.332 10.4201 10.4578 10.378 10.4997C10.2939 10.5836 10.2098 10.6674 10.2939 10.7932C10.378 10.9609 10.6726 11.4221 11.1354 11.8414C11.7244 12.3445 12.1872 12.5122 12.3555 12.5961C12.5238 12.6799 12.6079 12.638 12.6921 12.5542C12.7762 12.4703 13.0707 12.1349 13.1549 11.9672C13.239 11.7995 13.3652 11.8414 13.4915 11.8833C13.6177 11.9252 14.375 12.3026 14.5012 12.3864C14.6695 12.4703 14.7537 12.5122 14.7957 12.5542C14.8378 12.6799 14.8378 12.9734 14.7116 13.3088Z" fill="#F0E8D9"/>
</svg>
