<svg width="23" height="23" viewBox="0 0 23 23" fill="none" xmlns="http://www.w3.org/2000/svg">
<circle cx="11.5" cy="11.5" r="11.5" fill="#8D8A84"/>
<path d="M16.0582 6.93574C14.9222 5.80371 13.4076 5.1748 11.8088 5.1748C8.485 5.1748 5.79232 7.85814 5.79232 11.1704C5.79232 12.2186 6.08683 13.2667 6.59171 14.1472L5.75024 17.2498L8.94781 16.4113C9.83134 16.8725 10.799 17.124 11.8088 17.124C15.1326 17.124 17.8252 14.4407 17.8252 11.1285C17.7832 9.57715 17.1941 8.06777 16.0582 6.93574ZM14.7118 13.3087C14.5856 13.6441 13.9966 13.9795 13.7021 14.0214C13.4496 14.0633 13.113 14.0633 12.7765 13.9795C12.5661 13.8956 12.2716 13.8118 11.935 13.6441C10.4204 13.0152 9.45268 11.5058 9.36854 11.38C9.28439 11.2962 8.73744 10.5834 8.73744 9.82871C8.73744 9.07402 9.1161 8.73861 9.24232 8.5709C9.36854 8.40319 9.53683 8.40319 9.66305 8.40319C9.74719 8.40319 9.87341 8.40319 9.95756 8.40319C10.0417 8.40319 10.1679 8.36126 10.2941 8.65475C10.4204 8.94824 10.7149 9.70293 10.7569 9.74486C10.799 9.82871 10.799 9.91256 10.7569 9.99642C10.7149 10.0803 10.6728 10.1641 10.5887 10.248C10.5045 10.3318 10.4204 10.4576 10.3783 10.4995C10.2941 10.5834 10.21 10.6673 10.2941 10.793C10.3783 10.9607 10.6728 11.4219 11.1356 11.8412C11.7246 12.3443 12.1874 12.512 12.3557 12.5959C12.524 12.6798 12.6082 12.6378 12.6923 12.554C12.7765 12.4701 13.071 12.1347 13.1551 11.967C13.2393 11.7993 13.3655 11.8412 13.4917 11.8831C13.6179 11.9251 14.3752 12.3024 14.5015 12.3863C14.6698 12.4701 14.7539 12.512 14.796 12.554C14.838 12.6798 14.838 12.9732 14.7118 13.3087Z" fill="#C4C4C4"/>
</svg>
