<svg width="49" height="49" viewBox="0 0 49 49" fill="none" xmlns="http://www.w3.org/2000/svg">
<path d="M48.1549 10.6129H45.2763L44.0998 8.90732L45.2743 7.20078H48.1549C48.2995 7.20074 48.4417 7.16359 48.5678 7.09288C48.6939 7.02217 48.7998 6.92027 48.8753 6.79693C48.9508 6.67359 48.9933 6.53295 48.9989 6.38846C49.0044 6.24397 48.9728 6.10046 48.907 5.97169C48.4382 5.0513 47.7556 4.25674 46.9163 3.65468C46.077 3.05261 45.1055 2.66059 44.0834 2.51149C43.0613 2.3624 42.0184 2.46058 41.0421 2.7978C40.0658 3.13502 39.1846 3.70145 38.4724 4.44957C38.1765 4.74576 37.8252 4.98069 37.4384 5.14089C37.0516 5.3011 36.637 5.38345 36.2184 5.38321C35.9994 4.89313 35.6709 4.4598 35.2582 4.11651C34.8455 3.77322 34.3596 3.52912 33.8378 3.40297C33.316 3.27681 32.7723 3.27196 32.2483 3.38879C31.7244 3.50562 31.2342 3.74101 30.8155 4.07688C30.5966 3.62777 30.2843 3.23055 29.8996 2.9118C29.5148 2.59305 29.0665 2.3601 28.5845 2.22853C28.1025 2.09696 27.598 2.06981 27.1047 2.14888C26.6114 2.22795 26.1406 2.41142 25.7239 2.68704C25.551 1.97399 25.1593 1.33291 24.6038 0.853646C24.0483 0.374378 23.3567 0.0809424 22.626 0.0144631C21.8953 -0.0520161 21.1621 0.111793 20.5292 0.482933C19.8963 0.854073 19.3954 1.41394 19.0967 2.08408C18.5763 1.6826 17.9538 1.43508 17.2998 1.36964C16.6458 1.30419 15.9866 1.42345 15.397 1.71385C14.8074 2.00425 14.3111 2.45417 13.9643 3.0125C13.6176 3.57084 13.4344 4.21522 13.4354 4.87246V4.90915C13.0804 4.69821 12.7636 4.42873 12.4984 4.11212C11.7064 3.16112 10.6907 2.42164 9.54237 1.96006C8.39405 1.49848 7.1491 1.32925 5.91924 1.46755C4.68938 1.60585 3.51311 2.04735 2.49599 2.75244C1.47886 3.45752 0.652725 4.40412 0.0917152 5.50728C0.0262272 5.63611 -0.00511705 5.77959 0.00068005 5.92399C0.00647715 6.0684 0.0492218 6.2089 0.124826 6.33207C0.200431 6.45523 0.306367 6.55695 0.432507 6.62748C0.558646 6.69801 0.70077 6.73501 0.84529 6.73492H4.32689L5.82052 8.90732L4.32737 11.0773H0.84529C0.700693 11.0773 0.558526 11.1145 0.432398 11.1852C0.306269 11.2559 0.200401 11.3578 0.124926 11.4811C0.0494516 11.6045 0.006897 11.7451 0.00133564 11.8896C-0.00422572 12.0341 0.0273926 12.1776 0.0931636 12.3064C0.654216 13.4095 1.48036 14.356 2.49745 15.0611C3.51455 15.7661 4.69078 16.2076 5.9206 16.346C7.15042 16.4843 8.39534 16.3152 9.54366 15.8537C10.692 15.3922 11.7078 14.6529 12.4999 13.702C12.7717 13.3791 13.0974 13.1057 13.4625 12.8939C13.4835 13.134 13.5293 13.3714 13.5991 13.6021C12.7684 14.002 12.0898 14.6607 11.6655 15.4791C11.2411 16.2976 11.0938 17.2317 11.2457 18.1411C11.3976 19.0505 11.8404 19.886 12.5078 20.5221C13.1751 21.1583 14.0309 21.5607 14.9465 21.6689C15.4611 23.2005 16.5156 24.4924 17.913 25.3036C18.5245 25.6459 19.0543 26.117 19.4657 26.6843C19.8772 27.2516 20.1604 27.9016 20.2958 28.5892H18.9292C18.7051 28.5892 18.4902 28.6782 18.3318 28.8366C18.1733 28.9951 18.0843 29.2099 18.0843 29.434V48.1552C18.0843 48.3792 18.1733 48.5941 18.3318 48.7526C18.4902 48.911 18.7051 49 18.9292 49C19.1532 49 19.3681 48.911 19.5265 48.7526C19.685 48.5941 19.774 48.3792 19.774 48.1552V35.0808H31.36V48.1552C31.36 48.3792 31.449 48.5941 31.6074 48.7526C31.7659 48.911 31.9808 49 32.2048 49C32.4289 49 32.6438 48.911 32.8022 48.7526C32.9606 48.5941 33.0496 48.3792 33.0496 48.1552V29.4335C33.0496 29.2095 32.9606 28.9946 32.8022 28.8361C32.6438 28.6777 32.4289 28.5887 32.2048 28.5887H30.8386C30.9741 27.9012 31.2573 27.2513 31.6688 26.6841C32.0802 26.1168 32.61 25.6458 33.2215 25.3036C34.2261 24.7198 35.0602 23.883 35.6408 22.8765C36.2213 21.87 36.528 20.7289 36.5303 19.567V12.4488C37.2654 12.5159 37.9531 12.8408 38.4719 13.366C39.184 14.1143 40.0652 14.6808 41.0416 15.0181C42.0179 15.3553 43.0609 15.4536 44.083 15.3045C45.1051 15.1554 46.0766 14.7633 46.9159 14.1612C47.7552 13.559 48.4378 12.7644 48.9066 11.8439C48.9728 11.7151 49.0047 11.5714 48.9994 11.4267C48.9941 11.282 48.9517 11.1411 48.8762 11.0174C48.8008 10.8938 48.6948 10.7917 48.5685 10.7209C48.4421 10.65 48.2997 10.6128 48.1549 10.6129ZM33.01 4.99411C33.4952 4.99514 33.9603 5.18833 34.3033 5.53141C34.6464 5.8745 34.8396 6.33952 34.8406 6.82472V12.5482C34.8328 13.0287 34.6365 13.4868 34.294 13.8238C33.9515 14.1607 33.4903 14.3496 33.0098 14.3496C32.5293 14.3496 32.0681 14.1607 31.7256 13.8238C31.3831 13.4868 31.1868 13.0287 31.179 12.5482V6.82472C31.18 6.33944 31.3732 5.87434 31.7164 5.53124C32.0596 5.18815 32.5248 4.99501 33.01 4.99411ZM27.6583 3.79399C28.1435 3.79488 28.6087 3.98802 28.9519 4.33112C29.2951 4.67421 29.4883 5.13932 29.4893 5.62459V12.5482C29.4893 13.0338 29.2964 13.4995 28.9531 13.8428C28.6098 14.1862 28.1441 14.3791 27.6585 14.3791C27.1729 14.3791 26.7073 14.1862 26.3639 13.8428C26.0206 13.4995 25.8277 13.0338 25.8277 12.5482V5.62459C25.8287 5.1394 26.0219 4.67437 26.365 4.33129C26.708 3.9882 27.1731 3.79501 27.6583 3.79399ZM20.4764 3.52075C20.4764 3.03518 20.6693 2.5695 21.0126 2.22615C21.356 1.8828 21.8216 1.68991 22.3072 1.68991C22.7928 1.68991 23.2585 1.8828 23.6018 2.22615C23.9451 2.5695 24.138 3.03518 24.138 3.52075V12.5482C24.1378 12.9884 23.9787 13.4137 23.69 13.746C23.0442 13.3705 22.3106 13.1726 21.5635 13.1724H20.598C20.521 12.9734 20.4798 12.7622 20.4764 12.5487V3.52075ZM11.2008 12.6187C10.6683 13.2579 10.0042 13.7748 9.25384 14.1341C8.50346 14.4933 7.68442 14.6865 6.85259 14.7005C6.02076 14.7145 5.1957 14.5489 4.43368 14.215C3.67165 13.8812 2.99058 13.3869 2.43692 12.766H4.77102C4.90796 12.766 5.04286 12.7327 5.16405 12.6689C5.28525 12.6052 5.38911 12.5129 5.46667 12.4L7.5425 9.38524C7.6395 9.24438 7.69144 9.07738 7.69144 8.90635C7.69144 8.73532 7.6395 8.56832 7.5425 8.42746L5.46667 5.41266C5.38911 5.2998 5.28525 5.20751 5.16405 5.14376C5.04286 5.08 4.90796 5.04671 4.77102 5.04673H2.43837C2.99207 4.42572 3.67319 3.93142 4.43528 3.59757C5.19737 3.26371 6.0225 3.09815 6.8544 3.11217C7.68629 3.12619 8.50537 3.31947 9.25578 3.67882C10.0062 4.03817 10.6703 4.55513 11.2027 5.19446C11.7963 5.90698 12.5668 6.45089 13.4369 6.77161V11.0401C12.5661 11.3614 11.795 11.9058 11.2008 12.6187ZM15.1246 12.5482V4.87246C15.1324 4.39204 15.3287 3.93393 15.6712 3.59695C16.0137 3.25997 16.4749 3.07111 16.9554 3.07111C17.4359 3.07111 17.8971 3.25997 18.2396 3.59695C18.5821 3.93393 18.7785 4.39204 18.7863 4.87246V12.5482C18.783 12.7617 18.742 12.9728 18.6651 13.172H15.4485C15.379 13.172 15.3114 13.1792 15.2429 13.1826C15.1662 12.9798 15.1263 12.765 15.1251 12.5482H15.1246ZM12.874 17.4366C12.8749 16.7541 13.1464 16.0998 13.629 15.6171C14.1117 15.1345 14.766 14.863 15.4485 14.8621H21.5635C22.2464 14.8621 22.9013 15.1333 23.3842 15.6162C23.867 16.0991 24.1383 16.754 24.1383 17.4368C24.1383 18.1197 23.867 18.7746 23.3842 19.2575C22.9013 19.7403 22.2464 20.0116 21.5635 20.0116H15.4485C14.7659 20.0107 14.1115 19.7391 13.6289 19.2564C13.1462 18.7737 12.8748 18.1192 12.874 17.4366ZM31.36 33.3911H19.774V30.2783H31.36V33.3911ZM32.3738 23.8418C31.5075 24.3354 30.7646 25.0191 30.2008 25.8414C29.637 26.6637 29.2672 27.6032 29.1191 28.5892H22.0144C21.8662 27.6033 21.4963 26.6638 20.9326 25.8415C20.3688 25.0192 19.6259 24.3355 18.7597 23.8418C17.9005 23.3427 17.211 22.5972 16.7804 21.7017H21.5621C22.3561 21.7032 23.1347 21.4826 23.8099 21.0648C24.4851 20.6469 25.03 20.0486 25.3829 19.3373C25.7358 18.626 25.8828 17.8302 25.8072 17.0398C25.7315 16.2494 25.4363 15.4959 24.9549 14.8645C24.9645 14.8539 24.9722 14.8418 24.9814 14.8307C25.3109 15.2188 25.7208 15.5307 26.1829 15.7445C26.6449 15.9584 27.1479 16.0691 27.6571 16.0691C28.1662 16.0691 28.6692 15.9584 29.1312 15.7445C29.5933 15.5307 30.0032 15.2188 30.3327 14.8307C30.8738 15.4696 31.6259 15.8934 32.4527 16.0254C33.2794 16.1573 34.1261 15.9887 34.8392 15.55V19.5675C34.8374 20.433 34.609 21.283 34.1766 22.0329C33.7442 22.7827 33.123 23.4062 32.3747 23.8413L32.3738 23.8418ZM43.1522 13.6813C42.5052 13.6839 41.8645 13.5537 41.2699 13.2989C40.6752 13.044 40.1391 12.6699 39.6947 12.1997C38.8547 11.3432 37.7267 10.8289 36.5293 10.7563V7.0574C37.7267 6.98488 38.8546 6.47072 39.6947 5.61445C40.1319 5.15507 40.6564 4.78746 41.2373 4.53311C41.8183 4.27876 42.4441 4.14278 43.0782 4.13312C43.7124 4.12345 44.3421 4.2403 44.9305 4.47683C45.5189 4.71335 46.0543 5.06481 46.5054 5.51066H44.8312C44.6942 5.51063 44.5593 5.54393 44.4381 5.60768C44.3169 5.67144 44.2131 5.76373 44.1355 5.87659L42.3798 8.42794C42.2828 8.5688 42.2308 8.7358 42.2308 8.90683C42.2308 9.07786 42.2828 9.24486 42.3798 9.38573L44.1355 11.9371C44.2131 12.0499 44.3169 12.1422 44.4381 12.206C44.5593 12.2697 44.6942 12.303 44.8312 12.303H46.5054C45.6142 13.1876 44.4088 13.6831 43.1531 13.6808L43.1522 13.6813Z" fill="#98793B"/>
</svg>
