<svg width="56" height="55" viewBox="0 0 56 55" fill="none" xmlns="http://www.w3.org/2000/svg">
<g clip-path="url(#clip0_139_113)">
<path d="M54.8328 0C54.5781 0 54.3423 0.0814258 54.1509 0.218174L54.1492 0.217314L43.6972 7.63608L41.4772 15.7758L9.92436 7.47173L1.47006 38.4621C0.8463 38.2992 0.207117 38.6618 0.0396655 39.2728C-0.126146 39.8838 0.242992 40.5115 0.865113 40.6759L26.8466 47.514C26.5476 50.7803 28.6719 53.8854 32.0095 54.765C32.6162 54.9228 33.2263 55 33.8245 55C36.9161 55 39.7444 52.9741 40.5817 49.9025C41.4773 46.6244 39.8007 43.2659 36.7691 41.8879L43.7314 16.3693L45.7377 9.01592L55.5165 2.07464V2.07378C55.8086 1.8656 56 1.52829 56 1.14555C56 0.512725 55.4771 0 54.8328 0ZM23.9806 13.5453L28.4872 14.7311L26.7474 21.111L25.6674 20.171L24.7958 19.4107L23.6525 19.6407L22.2391 19.9244L23.9806 13.5453ZM37.8627 45.8322C38.4848 46.893 38.6505 48.1266 38.3275 49.31C37.7824 51.3107 35.9298 52.7072 33.8244 52.7072C33.4194 52.7072 33.0109 52.6552 32.6127 52.5494C30.1279 51.8965 28.6479 49.3771 29.3127 46.9366C29.8596 44.9359 31.7104 43.5394 33.8158 43.5394C34.2226 43.5394 34.631 43.5914 35.0292 43.6972C36.2324 44.0128 37.2389 44.7714 37.8627 45.8322ZM34.5182 41.2819C34.2841 41.2584 34.05 41.2467 33.8158 41.2467C31.0918 41.2467 28.5727 42.821 27.4397 45.2968L3.72251 39.0545L11.5735 10.2789L21.7265 12.9501L19.6125 20.6997L21.5642 22.3991L24.1208 21.8855L26.0725 23.5858L28.6275 23.0722L30.7414 15.3227L40.874 17.9889L34.5182 41.2819Z" fill="#98793B"/>
</g>
<defs>
<clipPath id="clip0_139_113">
<rect width="56" height="55" fill="white"/>
</clipPath>
</defs>
</svg>
