<svg width="56" height="55" viewBox="0 0 56 55" fill="none" xmlns="http://www.w3.org/2000/svg">
<g clip-path="url(#clip0_404_1224)">
<path d="M48.9987 11.9712C48.9946 11.7921 48.9429 11.6173 48.849 11.4647C48.755 11.312 48.6222 11.1869 48.464 11.1022L27.9807 0.120355C27.8329 0.0413431 27.6677 0 27.5 0C27.3323 0 27.1671 0.0413431 27.0193 0.120355L6.53604 11.1045C6.37785 11.1892 6.245 11.3143 6.15106 11.467C6.05712 11.6196 6.00545 11.7944 6.00132 11.9736C5.99435 12.2198 5.5949 36.7582 26.913 51.8141C27.0848 51.9351 27.2898 52 27.5 52C27.7102 52 27.9153 51.9351 28.087 51.8141C49.4022 36.7558 49.0057 12.2175 48.9987 11.9712ZM27.5 49.7353C9.44364 36.5699 8.12454 16.2724 8.03745 12.6016L27.5 2.16435L46.9626 12.6016C46.8755 16.2724 45.5564 36.5699 27.5 49.7353Z" fill="#98793B"/>
<path d="M27.0155 5.11947L10.5396 13.816C10.3653 13.9081 10.2219 14.0479 10.1266 14.2183C10.0314 14.3887 9.98833 14.5826 10.0027 14.7765C10.4459 20.721 12.9747 35.7382 26.8562 46.7766C27.0387 46.9212 27.2659 47 27.5003 47C27.7346 47 27.9619 46.9212 28.1443 46.7766C42.0265 35.7342 44.5547 20.7233 44.9973 14.777C45.0117 14.5831 44.9686 14.3893 44.8734 14.2189C44.7781 14.0484 44.6347 13.9087 44.4604 13.8166L27.9851 5.11947C27.836 5.04104 27.6694 5 27.5003 5C27.3311 5 27.1646 5.04104 27.0155 5.11947ZM42.8989 15.278C42.3526 21.2398 39.7296 34.5822 27.5003 44.6895C15.2728 34.5833 12.6492 21.2403 12.1017 15.278L27.5003 7.14911L42.8989 15.278Z" fill="#98793B"/>
<path d="M18.4038 23.4398C18.4037 25.2351 18.9371 26.9901 19.9365 28.4829C20.9359 29.9756 22.3565 31.1391 24.0186 31.8262C25.6807 32.5133 27.5096 32.6932 29.2741 32.343C31.0386 31.9928 32.6594 31.1284 33.9316 29.859C35.2038 28.5896 36.0701 26.9722 36.4212 25.2115C36.7722 23.4507 36.5921 21.6256 35.9036 19.967C35.2152 18.3084 34.0493 16.8907 32.5535 15.8933C31.0576 14.8959 29.299 14.3635 27.4999 14.3635C25.0884 14.3663 22.7765 15.3234 21.0712 17.0249C19.366 18.7265 18.4067 21.0335 18.4038 23.4398ZM34.5639 23.4398C34.564 24.8341 34.1498 26.197 33.3737 27.3563C32.5976 28.5156 31.4944 29.4192 30.2036 29.9528C28.9128 30.4864 27.4925 30.6261 26.1221 30.3542C24.7518 30.0822 23.4931 29.4109 22.5051 28.4251C21.5171 27.4393 20.8443 26.1833 20.5716 24.8159C20.299 23.4484 20.4389 22.0311 20.9735 20.743C21.5082 19.4549 22.4136 18.3539 23.5753 17.5793C24.737 16.8047 26.1027 16.3913 27.4999 16.3913C29.3726 16.3934 31.1681 17.1367 32.4923 18.4581C33.8166 19.7795 34.5616 21.5711 34.5639 23.4398Z" fill="#98793B"/>
<path d="M24.9273 23.1773C24.732 22.9964 24.4732 22.8993 24.2068 22.907C23.9404 22.9148 23.6877 23.0266 23.5032 23.2185C23.3186 23.4104 23.217 23.667 23.2203 23.9329C23.2235 24.1988 23.3314 24.4528 23.5206 24.6402L25.7042 26.7305C25.8933 26.9115 26.1452 27.0126 26.4073 27.0127H26.4583C26.5966 27.0058 26.7321 26.9707 26.8563 26.9096C26.9805 26.8485 27.0909 26.7627 27.1806 26.6575L31.5495 21.5377C31.723 21.3329 31.8081 21.0678 31.7861 20.8005C31.7642 20.5332 31.637 20.2855 31.4325 20.1116C31.2279 19.9376 30.9626 19.8516 30.6947 19.8724C30.4267 19.8932 30.178 20.0191 30.0028 20.2225L26.3329 24.5214L24.9273 23.1773Z" fill="#98793B"/>
</g>
<defs>
<clipPath id="clip0_404_1224">
<rect width="43" height="52" fill="white" transform="translate(6)"/>
</clipPath>
</defs>
</svg>
