<svg width="18" height="18" viewBox="0 0 18 18" fill="none" xmlns="http://www.w3.org/2000/svg">
<path fill-rule="evenodd" clip-rule="evenodd" d="M0.615983 0.616568C0.850393 0.382218 1.16828 0.250568 1.49973 0.250568C1.83119 0.250568 2.14907 0.382218 2.38348 0.616568L8.99973 7.23314L15.616 0.616568C15.7313 0.497175 15.8692 0.401942 16.0217 0.336428C16.1742 0.270914 16.3383 0.236429 16.5042 0.234987C16.6702 0.233544 16.8348 0.265173 16.9884 0.328027C17.142 0.390881 17.2816 0.483702 17.399 0.601074C17.5163 0.718445 17.6092 0.858017 17.672 1.01164C17.7349 1.16527 17.7665 1.32988 17.765 1.49586C17.7636 1.66184 17.7291 1.82588 17.6636 1.97839C17.5981 2.1309 17.5029 2.26884 17.3835 2.38415L10.7672 9.00072L17.3835 15.6173C17.6112 15.8531 17.7372 16.1688 17.7343 16.4966C17.7315 16.8243 17.6 17.1379 17.3683 17.3696C17.1365 17.6014 16.823 17.7329 16.4952 17.7357C16.1675 17.7386 15.8517 17.6126 15.616 17.3849L8.99973 10.7683L2.38348 17.3849C2.14773 17.6126 1.83198 17.7386 1.50423 17.7357C1.17649 17.7329 0.86297 17.6014 0.63121 17.3696C0.39945 17.1379 0.267988 16.8243 0.26514 16.4966C0.262292 16.1688 0.388286 15.8531 0.615983 15.6173L7.23223 9.00072L0.615983 2.38415C0.381644 2.14973 0.25 1.83183 0.25 1.50036C0.25 1.16889 0.381644 0.850989 0.615983 0.616568V0.616568Z" fill="#413E3A"/>
</svg>
