<svg width="20" height="20" viewBox="0 0 20 20" fill="none" xmlns="http://www.w3.org/2000/svg">
<path fill-rule="evenodd" clip-rule="evenodd" d="M4.41 4.41083C4.56628 4.2546 4.7782 4.16684 4.99917 4.16684C5.22014 4.16684 5.43206 4.2546 5.58834 4.41083L9.99917 8.82166L14.41 4.41083C14.4869 4.33124 14.5788 4.26775 14.6805 4.22408C14.7822 4.18041 14.8915 4.15742 15.0022 4.15646C15.1128 4.15549 15.2226 4.17658 15.325 4.21848C15.4274 4.26038 15.5204 4.32226 15.5987 4.4005C15.6769 4.47874 15.7388 4.57179 15.7807 4.6742C15.8226 4.77662 15.8437 4.88635 15.8427 4.997C15.8418 5.10765 15.8188 5.217 15.7751 5.31867C15.7314 5.42034 15.6679 5.51229 15.5883 5.58916L11.1775 10L15.5883 14.4108C15.7401 14.568 15.8241 14.7785 15.8222 14.997C15.8203 15.2155 15.7327 15.4245 15.5782 15.579C15.4237 15.7335 15.2147 15.8212 14.9962 15.8231C14.7777 15.825 14.5672 15.741 14.41 15.5892L9.99917 11.1783L5.58834 15.5892C5.43117 15.741 5.22067 15.825 5.00217 15.8231C4.78367 15.8212 4.57466 15.7335 4.42016 15.579C4.26565 15.4245 4.17801 15.2155 4.17611 14.997C4.17421 14.7785 4.25821 14.568 4.41 14.4108L8.82084 10L4.41 5.58916C4.25378 5.43289 4.16602 5.22097 4.16602 5C4.16602 4.77903 4.25378 4.5671 4.41 4.41083Z" fill="#C4C4C4"/>
</svg>
