<svg width="20" height="24" viewBox="0 0 20 24" fill="none" xmlns="http://www.w3.org/2000/svg">
<g clip-path="url(#clip0_642_1905)">
<path d="M19.9994 5.52519C19.9975 5.44252 19.9734 5.36184 19.9297 5.29138C19.8861 5.22091 19.8243 5.16319 19.7507 5.12409L10.2236 0.0555486C10.1548 0.0190814 10.078 0 10 0C9.92199 0 9.84518 0.0190814 9.77641 0.0555486L0.249322 5.12516C0.175743 5.16426 0.113954 5.22198 0.0702616 5.29245C0.0265688 5.36291 0.00253535 5.44359 0.000613009 5.52626C-0.0026275 5.6399 -0.188417 16.9653 9.72699 23.9142C9.80686 23.97 9.90223 24 10 24C10.0978 24 10.1931 23.97 10.273 23.9142C20.1871 16.9642 20.0026 5.63883 19.9994 5.52519ZM10 22.9548C1.60169 16.8784 0.988157 7.51035 0.947651 5.81612L10 0.998931L19.0524 5.81612C19.0119 7.51035 18.3983 16.8784 10 22.9548Z" fill="#98793B"/>
<path d="M9.77851 2.05405L2.24668 5.98819C2.16701 6.02988 2.10144 6.09308 2.05789 6.17017C2.01434 6.24727 1.99467 6.33497 2.00124 6.42269C2.20385 9.11188 3.35986 15.9054 9.70571 20.899C9.7891 20.9643 9.893 21 10.0001 21C10.1073 21 10.2112 20.9643 10.2946 20.899C16.6407 15.9035 17.7964 9.11292 17.9988 6.42295C18.0053 6.33523 17.9857 6.24753 17.9421 6.17043C17.8986 6.09334 17.833 6.03014 17.7533 5.98845L10.2218 2.05405C10.1536 2.01857 10.0775 2 10.0001 2C9.92281 2 9.84668 2.01857 9.77851 2.05405ZM17.0395 6.64956C16.7898 9.34656 15.5907 15.3824 10.0001 19.9548C4.41041 15.3829 3.21104 9.34682 2.96079 6.64956L10.0001 2.97221L17.0395 6.64956Z" fill="#98793B"/>
<path d="M6 10.9997C5.99995 11.7909 6.2345 12.5643 6.674 13.2221C7.11349 13.8799 7.73819 14.3927 8.46909 14.6954C9.19999 14.9982 10.0043 15.0775 10.7802 14.9232C11.5561 14.7689 12.2689 14.3879 12.8283 13.8285C13.3878 13.2691 13.7688 12.5564 13.9231 11.7805C14.0775 11.0045 13.9983 10.2002 13.6955 9.46932C13.3928 8.73841 12.8801 8.11368 12.2223 7.67414C11.5645 7.2346 10.7911 7 10 7C8.93955 7.00122 7.92288 7.423 7.17301 8.17283C6.42313 8.92265 6.00128 9.9393 6 10.9997ZM13.1064 10.9997C13.1065 11.6141 12.9243 12.2148 12.583 12.7256C12.2417 13.2365 11.7566 13.6347 11.1889 13.8699C10.6213 14.105 9.99673 14.1666 9.39413 14.0467C8.79153 13.9269 8.238 13.6311 7.80353 13.1966C7.36907 12.7622 7.07319 12.2087 6.95331 11.6061C6.83342 11.0035 6.89493 10.3789 7.13003 9.81129C7.36514 9.24365 7.7633 8.75849 8.27415 8.41714C8.785 8.07579 9.3856 7.8936 10 7.8936C10.8235 7.89454 11.6131 8.22209 12.1954 8.8044C12.7778 9.3867 13.1054 10.1762 13.1064 10.9997Z" fill="#98793B"/>
<path d="M8.79685 10.3892C8.70566 10.3133 8.58487 10.2725 8.46051 10.2757C8.33616 10.279 8.21821 10.326 8.13207 10.4066C8.04593 10.4871 7.99851 10.5949 8.00004 10.7066C8.00156 10.8183 8.05189 10.9249 8.1402 11.0036L9.15946 11.8815C9.24774 11.9575 9.36533 12 9.48765 12H9.5115C9.57606 11.9971 9.63927 11.9824 9.69725 11.9567C9.75523 11.9311 9.80675 11.895 9.84864 11.8508L11.888 9.70065C11.9689 9.61462 12.0087 9.5033 11.9984 9.39105C11.9882 9.27879 11.9288 9.17475 11.8333 9.1017C11.7378 9.02866 11.614 8.99255 11.4889 9.00128C11.3639 9.01002 11.2478 9.06289 11.166 9.14832L9.45296 10.9537L8.79685 10.3892Z" fill="#98793B"/>
</g>
<defs>
<clipPath id="clip0_642_1905">
<rect width="20" height="24" fill="white"/>
</clipPath>
</defs>
</svg>
