<svg width="21" height="21" viewBox="0 0 21 21" fill="none" xmlns="http://www.w3.org/2000/svg">
<path d="M10.8333 8H6.16667C5.85725 8 5.5605 8.10536 5.34171 8.29289C5.12292 8.48043 5 8.73478 5 9C5 9.26522 5.12292 9.51957 5.34171 9.70711C5.5605 9.89464 5.85725 10 6.16667 10H10.8333C11.1428 10 11.4395 9.89464 11.6583 9.70711C11.8771 9.51957 12 9.26522 12 9C12 8.73478 11.8771 8.48043 11.6583 8.29289C11.4395 8.10536 11.1428 8 10.8333 8ZM10.8333 9.33333H6.16667C6.06353 9.33333 5.96461 9.29821 5.89168 9.2357C5.81875 9.17319 5.77778 9.08841 5.77778 9C5.77778 8.91159 5.81875 8.82681 5.89168 8.7643C5.96461 8.70179 6.06353 8.66667 6.16667 8.66667H10.8333C10.9365 8.66667 11.0354 8.70179 11.1083 8.7643C11.1813 8.82681 11.2222 8.91159 11.2222 9C11.2222 9.08841 11.1813 9.17319 11.1083 9.2357C11.0354 9.29821 10.9365 9.33333 10.8333 9.33333Z" fill="#98793B"/>
<path d="M7.625 11H2.375C2.27554 11 2.18016 11.0376 2.10984 11.1046C2.03951 11.1716 2 11.2624 2 11.3571V15.6429C2 15.7376 2.03951 15.8284 2.10984 15.8954C2.18016 15.9624 2.27554 16 2.375 16H7.625C7.72446 16 7.81984 15.9624 7.89017 15.8954C7.96049 15.8284 8 15.7376 8 15.6429V11.3571C8 11.2624 7.96049 11.1716 7.89017 11.1046C7.81984 11.0376 7.72446 11 7.625 11ZM7.25 15.2857H2.75V11.7143H7.25V15.2857Z" fill="#98793B"/>
<path d="M3.4 13H4.6C4.70609 13 4.80783 12.9473 4.88284 12.8536C4.95786 12.7598 5 12.6326 5 12.5C5 12.3674 4.95786 12.2402 4.88284 12.1464C4.80783 12.0527 4.70609 12 4.6 12H3.4C3.29391 12 3.19217 12.0527 3.11716 12.1464C3.04214 12.2402 3 12.3674 3 12.5C3 12.6326 3.04214 12.7598 3.11716 12.8536C3.19217 12.9473 3.29391 13 3.4 13Z" fill="#98793B"/>
<path d="M3.375 15H5.625C5.72446 15 5.81984 14.9473 5.89017 14.8536C5.96049 14.7598 6 14.6326 6 14.5C6 14.3674 5.96049 14.2402 5.89017 14.1464C5.81984 14.0527 5.72446 14 5.625 14H3.375C3.27554 14 3.18016 14.0527 3.10984 14.1464C3.03951 14.2402 3 14.3674 3 14.5C3 14.6326 3.03951 14.7598 3.10984 14.8536C3.18016 14.9473 3.27554 15 3.375 15Z" fill="#98793B"/>
<path d="M17.1113 12.6175V0.381815C17.1113 0.280552 17.0703 0.183435 16.9974 0.111831C16.9244 0.0402269 16.8255 0 16.7224 0H0.388893C0.285752 0 0.186836 0.0402269 0.113904 0.111831C0.0409726 0.183435 0 0.280552 0 0.381815V17.1817C0 17.283 0.0409726 17.3801 0.113904 17.4517C0.186836 17.5233 0.285752 17.5635 0.388893 17.5635H12.5156C12.6604 18.3322 13.0208 19.046 13.5563 19.6246C14.0918 20.2032 14.7811 20.6235 15.5467 20.8383C16.3123 21.0531 17.1237 21.0539 17.8897 20.8405C18.6558 20.6272 19.3459 20.2081 19.8825 19.6306C20.4192 19.0531 20.781 18.3399 20.9272 17.5715C21.0735 16.803 20.9984 16.0097 20.7104 15.2809C20.4224 14.5521 19.9329 13.9166 19.2971 13.4461C18.6612 12.9756 17.9042 12.6886 17.1113 12.6175ZM10.889 0.763631H16.3335V2.29089H10.889V0.763631ZM7.00007 0.763631H10.1112V2.29089H7.00007V0.763631ZM7.00007 3.05452H10.1112V5.92692L8.70006 5.37272C8.60735 5.33631 8.50393 5.33631 8.41121 5.37272L7.00007 5.92692V3.05452ZM0.777785 0.763631H6.22228V2.29089H0.777785V0.763631ZM12.4446 16.7999H0.777785V3.05452H6.22228V6.49086C6.22228 6.55326 6.23785 6.6147 6.26764 6.66982C6.29743 6.72494 6.34052 6.77205 6.39315 6.80703C6.44577 6.84202 6.50633 6.8638 6.56951 6.87049C6.6327 6.87717 6.69659 6.86855 6.7556 6.84538L8.55564 6.13845L10.3557 6.84538C10.4147 6.86855 10.4786 6.87717 10.5418 6.87049C10.605 6.8638 10.6655 6.84202 10.7181 6.80703C10.7708 6.77205 10.8138 6.72494 10.8436 6.66982C10.8734 6.6147 10.889 6.55326 10.889 6.49086V3.05452H16.3335V12.6175C15.2712 12.7139 14.2838 13.1961 13.5645 13.9697C12.8453 14.7432 12.4459 15.7525 12.4446 16.7999ZM16.7224 20.2362C16.0301 20.2362 15.3534 20.0347 14.7779 19.6571C14.2023 19.2795 13.7537 18.7428 13.4888 18.1149C13.2239 17.487 13.1546 16.7961 13.2896 16.1295C13.4247 15.4629 13.758 14.8506 14.2475 14.37C14.737 13.8894 15.3606 13.5622 16.0396 13.4296C16.7185 13.297 17.4222 13.365 18.0618 13.6251C18.7013 13.8852 19.248 14.3256 19.6326 14.8907C20.0171 15.4559 20.2224 16.1202 20.2224 16.7999C20.2214 17.7109 19.8523 18.5844 19.1961 19.2286C18.54 19.8728 17.6503 20.2352 16.7224 20.2362Z" fill="#98793B"/>
<path d="M17.5455 15H15.7273C15.6308 15 15.5383 15.0421 15.4702 15.1172C15.402 15.1922 15.3636 15.2939 15.3636 15.4C15.3636 15.5061 15.402 15.6078 15.4702 15.6828C15.5383 15.7579 15.6308 15.8 15.7273 15.8H17.5455C17.7383 15.8 17.9233 15.8843 18.0597 16.0343C18.1961 16.1843 18.2727 16.3878 18.2727 16.6C18.2727 16.8122 18.1961 17.0157 18.0597 17.1657C17.9233 17.3157 17.7383 17.4 17.5455 17.4H16.2416L16.3481 17.2828C16.4163 17.2078 16.4546 17.1061 16.4546 17C16.4546 16.8939 16.4163 16.7922 16.3481 16.7171C16.2799 16.6421 16.1874 16.6 16.0909 16.6C15.9945 16.6 15.902 16.6421 15.8338 16.7171L15.1065 17.5171C15.0727 17.5543 15.046 17.5984 15.0277 17.6469C15.0094 17.6954 15 17.7475 15 17.8C15 17.8525 15.0094 17.9045 15.0277 17.9531C15.046 18.0016 15.0727 18.0457 15.1065 18.0828L15.8338 18.8828C15.902 18.9579 15.9945 19 16.0909 19C16.1874 19 16.2799 18.9579 16.3481 18.8828C16.4163 18.8078 16.4546 18.7061 16.4546 18.6C16.4546 18.4939 16.4163 18.3922 16.3481 18.3171L16.2416 18.2H17.5455C17.9312 18.2 18.3012 18.0314 18.574 17.7314C18.8468 17.4313 19 17.0243 19 16.6C19 16.1757 18.8468 15.7687 18.574 15.4686C18.3012 15.1686 17.9312 15 17.5455 15Z" fill="#98793B"/>
</svg>
