<svg width="21" height="25" viewBox="0 0 21 25" fill="none" xmlns="http://www.w3.org/2000/svg">
<path d="M20.4954 15.0796H19.9192V12.1107C19.9192 11.0022 18.9873 10.1002 17.8419 10.1002H17.1456L19.1762 6.37799C19.3876 5.99039 19.4303 5.54634 19.2962 5.12768C19.1619 4.70853 18.8667 4.36511 18.4649 4.16066L10.6566 0.188659C9.82856 -0.232638 8.79969 0.0755223 8.36318 0.87549L3.33089 10.1002H2.07726C0.931849 10.1002 0 11.0022 0 12.1107V22.9895C0 24.0981 0.931849 25 2.07726 25H17.8419C18.9873 25 19.9192 24.0981 19.9192 22.9895V20.0207H20.4955C20.7741 20.0207 21 19.802 21 19.5324V15.5679C21 15.2982 20.7741 15.0796 20.4954 15.0796ZM9.25548 1.33146C9.43261 1.00674 9.85056 0.881886 10.1872 1.05308L17.9955 5.02509C18.1584 5.10795 18.2781 5.24706 18.3325 5.41674C18.3866 5.58589 18.3694 5.76533 18.2839 5.92203L16.0046 10.1002H14.6504L15.9377 7.74042C16.0003 7.62572 16.0131 7.49174 15.9734 7.36786C15.9338 7.24403 15.8448 7.14056 15.7263 7.0802C15.3957 6.91209 15.1529 6.62976 15.0426 6.28532C14.9326 5.9417 14.9676 5.5772 15.1412 5.25893C15.2038 5.14423 15.2166 5.01024 15.1769 4.88636C15.1373 4.76253 15.0483 4.65906 14.9298 4.59871L12.2819 3.25181C12.0356 3.12656 11.731 3.21782 11.601 3.45606C11.2418 4.11457 10.3944 4.36789 9.71212 4.02091C9.46586 3.89567 9.16118 3.98698 9.03122 4.22517L5.82625 10.1002H4.47192L9.25548 1.33146ZM14.0788 6.57443C14.2181 7.0096 14.48 7.38724 14.834 7.67192L13.5093 10.1002H6.96727L9.71313 5.06683C10.6219 5.31327 11.606 5.01893 12.2111 4.31911L14.0598 5.25951C13.9349 5.68677 13.9397 6.14024 14.0788 6.57443ZM18.9102 22.9895C18.9102 23.5596 18.4309 24.0234 17.8419 24.0234H2.07726C1.48823 24.0234 1.00904 23.5596 1.00904 22.9895V12.1107C1.00904 11.5406 1.48823 11.0768 2.07726 11.0768H17.8419C18.4309 11.0768 18.9102 11.5406 18.9102 12.1107V15.0796H16.9402C15.5327 15.0796 14.3876 16.1879 14.3876 17.5501C14.3876 18.9124 15.5327 20.0207 16.9402 20.0207H18.9102V22.9895ZM19.9909 19.0441H16.9402C16.089 19.0441 15.3965 18.3738 15.3965 17.5501C15.3965 16.7263 16.089 16.0561 16.9402 16.0561H19.9909V19.0441Z" fill="#98793B"/>
</svg>
