<svg width="25" height="24" viewBox="0 0 25 24" fill="none" xmlns="http://www.w3.org/2000/svg">
<path d="M24.4789 0C24.3652 0 24.26 0.0355312 24.1745 0.0952031L24.1737 0.0948281L19.5077 3.33211L18.5166 6.88397L4.43052 3.26039L0.656277 16.7835C0.377813 16.7124 0.0924631 16.8706 0.0177078 17.1372C-0.0563151 17.4038 0.108479 17.6777 0.386211 17.7495L11.9851 20.7334C11.8516 22.1587 12.7999 23.5136 14.29 23.8974C14.5608 23.9663 14.8332 24 15.1002 24C16.4804 24 17.743 23.116 18.1168 21.7756C18.5166 20.3452 17.7682 18.8797 16.4148 18.2783L19.5229 7.14295L20.4186 3.93422L24.7841 0.905297V0.904922C24.9146 0.814078 25 0.666891 25 0.499875C25 0.223734 24.7666 0 24.4789 0ZM10.7056 5.91066L12.7175 6.42811L11.9408 9.21206L11.4586 8.80191L11.0695 8.47013L10.5591 8.57048L9.92818 8.69428L10.7056 5.91066ZM16.903 19.9995C17.1807 20.4624 17.2547 21.0007 17.1105 21.5171C16.8671 22.3901 16.0401 22.9995 15.1002 22.9995C14.9194 22.9995 14.737 22.9768 14.5593 22.9306C13.4499 22.6457 12.7892 21.5464 13.086 20.4814C13.3302 19.6084 14.1564 18.999 15.0964 18.999C15.278 18.999 15.4603 19.0217 15.6381 19.0679C16.1752 19.2056 16.6245 19.5366 16.903 19.9995ZM15.4099 18.0139C15.3054 18.0037 15.2009 17.9985 15.0964 17.9985C13.8803 17.9985 12.7557 18.6855 12.2498 19.7659L1.66184 17.042L5.16674 4.48533L9.69933 5.65097L8.75558 9.03258L9.62687 9.77414L10.7682 9.55003L11.6395 10.292L12.7801 10.0679L13.7239 6.68625L18.2473 7.84969L15.4099 18.0139Z" fill="#98793B"/>
</svg>
