<svg width="23" height="23" viewBox="0 0 23 23" fill="none" xmlns="http://www.w3.org/2000/svg">
<circle cx="11.5" cy="11.5" r="11.5" fill="#D7C299"/>
<path d="M5.37743 11.715L8.02134 12.7009L9.05201 16.0169C9.09682 16.241 9.36569 16.2858 9.54494 16.1514L11.0237 14.9414C11.1582 14.807 11.3822 14.807 11.5615 14.9414L14.2054 16.8684C14.3846 17.0028 14.6535 16.9132 14.6983 16.6891L16.67 7.27863C16.7148 7.05457 16.4908 6.83051 16.2667 6.92014L5.37743 11.1324C5.10856 11.2221 5.10856 11.6254 5.37743 11.715ZM8.91758 12.2079L14.1157 9.02629C14.2054 8.98148 14.295 9.11591 14.2054 9.16073L9.94824 13.149C9.81381 13.2834 9.67937 13.4627 9.67937 13.6867L9.54494 14.7622C9.54494 14.8966 9.32088 14.9414 9.27607 14.7622L8.73832 12.7905C8.60388 12.5664 8.69352 12.2976 8.91758 12.2079Z" fill="#F0E8D9"/>
</svg>
