<svg width="23" height="23" viewBox="0 0 23 23" fill="none" xmlns="http://www.w3.org/2000/svg">
<circle cx="11.5" cy="11.5" r="11.5" fill="#D7C299"/>
<path d="M16.0579 6.93574C14.9219 5.80371 13.4073 5.1748 11.8085 5.1748C8.48475 5.1748 5.79207 7.85814 5.79207 11.1704C5.79207 12.2186 6.08659 13.2667 6.59146 14.1472L5.75 17.2498L8.94756 16.4113C9.8311 16.8725 10.7988 17.124 11.8085 17.124C15.1323 17.124 17.825 14.4407 17.825 11.1285C17.7829 9.57715 17.1939 8.06777 16.0579 6.93574ZM14.7116 13.3087C14.5854 13.6441 13.9963 13.9795 13.7018 14.0214C13.4494 14.0633 13.1128 14.0633 12.7762 13.9795C12.5659 13.8956 12.2713 13.8118 11.9348 13.6441C10.4201 13.0152 9.45244 11.5058 9.36829 11.38C9.28415 11.2962 8.7372 10.5834 8.7372 9.82871C8.7372 9.07402 9.11585 8.73861 9.24207 8.5709C9.36829 8.40319 9.53658 8.40319 9.6628 8.40319C9.74695 8.40319 9.87317 8.40319 9.95732 8.40319C10.0415 8.40319 10.1677 8.36126 10.2939 8.65475C10.4201 8.94824 10.7146 9.70293 10.7567 9.74486C10.7988 9.82871 10.7988 9.91256 10.7567 9.99642C10.7146 10.0803 10.6726 10.1641 10.5884 10.248C10.5043 10.3318 10.4201 10.4576 10.378 10.4995C10.2939 10.5834 10.2098 10.6673 10.2939 10.793C10.378 10.9607 10.6726 11.4219 11.1354 11.8412C11.7244 12.3443 12.1872 12.512 12.3555 12.5959C12.5238 12.6798 12.6079 12.6378 12.6921 12.554C12.7762 12.4701 13.0707 12.1347 13.1549 11.967C13.239 11.7993 13.3652 11.8412 13.4915 11.8831C13.6177 11.9251 14.375 12.3024 14.5012 12.3863C14.6695 12.4701 14.7537 12.512 14.7957 12.554C14.8378 12.6798 14.8378 12.9732 14.7116 13.3087Z" fill="#F0E8D9"/>
</svg>
